<svg width="19" height="19" viewBox="0 0 19 19" fill="none" xmlns="http://www.w3.org/2000/svg">
<path d="M13.776 0.999609L11.776 2.99961H2.01904V16.9996H16.019V7.24261L18.019 5.24261V17.9996C18.019 18.2648 17.9137 18.5192 17.7262 18.7067C17.5386 18.8943 17.2843 18.9996 17.019 18.9996H1.01904C0.753826 18.9996 0.499472 18.8943 0.311936 18.7067C0.1244 18.5192 0.019043 18.2648 0.019043 17.9996V1.99961C0.019043 1.73439 0.1244 1.48004 0.311936 1.2925C0.499472 1.10497 0.753826 0.999609 1.01904 0.999609H13.776ZM17.504 0.0996094L18.919 1.51561L9.72704 10.7076L8.31504 10.7106L8.31304 9.29361L17.504 0.0996094Z" fill="#885FFF"/>
</svg>
