<svg width="18" height="18" viewBox="0 0 18 18" fill="none" xmlns="http://www.w3.org/2000/svg">
<path d="M15.029 12.6427C16.9426 10.935 18.0001 9 18.0001 9C18.0001 9 14.6251 2.8125 9.00008 2.8125C7.91962 2.81622 6.85139 3.04135 5.86133 3.474L6.72758 4.34137C7.45594 4.07605 8.22489 3.93939 9.00008 3.9375C11.3851 3.9375 13.364 5.2515 14.8141 6.70162C15.512 7.40328 16.1376 8.17327 16.6816 9C16.6163 9.09788 16.5443 9.20587 16.4622 9.324C16.0853 9.864 15.5285 10.584 14.8141 11.2984C14.6285 11.484 14.435 11.6674 14.2325 11.8451L15.029 12.6427Z" fill="#32404E"/>
<path d="M12.7093 10.3227C12.9603 9.62049 13.0068 8.86146 12.8433 8.13389C12.6799 7.40632 12.3132 6.74013 11.7859 6.21284C11.2586 5.68554 10.5924 5.31882 9.86481 5.15535C9.13724 4.99188 8.37821 5.03837 7.67603 5.28942L8.6019 6.21529C9.03425 6.15341 9.47507 6.19307 9.88943 6.33112C10.3038 6.46918 10.6803 6.70185 10.9891 7.01068C11.298 7.31951 11.5306 7.69603 11.6687 8.11039C11.8068 8.52475 11.8464 8.96557 11.7845 9.39792L12.7093 10.3227ZM9.3984 11.784L10.3232 12.7088C9.62098 12.9598 8.86195 13.0063 8.13438 12.8429C7.40681 12.6794 6.74062 12.3127 6.21333 11.7854C5.68603 11.2581 5.31931 10.5919 5.15584 9.86432C4.99236 9.13675 5.03886 8.37772 5.2899 7.67554L6.21578 8.60142C6.1539 9.03377 6.19355 9.47459 6.33161 9.88895C6.46967 10.3033 6.70233 10.6798 7.01117 10.9887C7.32 11.2975 7.69651 11.5301 8.11087 11.6682C8.52524 11.8063 8.96606 11.8459 9.3984 11.784Z" fill="#32404E"/>
<path d="M3.76875 6.15356C3.56625 6.33356 3.37162 6.51581 3.186 6.70144C2.4881 7.40309 1.86246 8.17308 1.3185 8.99981L1.53787 9.32381C1.91475 9.86381 2.47163 10.5838 3.186 11.2982C4.63613 12.7483 6.61613 14.0623 9 14.0623C9.8055 14.0623 10.5638 13.9127 11.2725 13.6573L12.1388 14.5258C11.1487 14.9584 10.0805 15.1836 9 15.1873C3.375 15.1873 0 8.99981 0 8.99981C0 8.99981 1.05638 7.06369 2.97113 5.35706L3.76762 6.15469L3.76875 6.15356ZM15.3517 16.1481L1.85175 2.64806L2.64825 1.85156L16.1483 15.3516L15.3517 16.1481Z" fill="#32404E"/>
</svg>
