<svg width="342" height="168" viewBox="0 0 342 168" fill="none" xmlns="http://www.w3.org/2000/svg">
<rect x="0.980469" width="341" height="168" rx="10" fill="#885FFF"/>
<mask id="mask0_716_10420" style="mask-type:alpha" maskUnits="userSpaceOnUse" x="0" y="0" width="342" height="168">
<rect x="0.980469" width="341" height="168" fill="white"/>
</mask>
<g mask="url(#mask0_716_10420)" />
<path fill-rule="evenodd" clip-rule="evenodd" d="M347.121 37.1586L347.116 37.6586L347.102 38.1585L347.078 38.6581L347.044 39.1573L347.001 39.6559L346.948 40.154L346.885 40.6512L346.813 41.1476L346.732 41.6429L346.64 42.1371L346.54 42.6299L346.43 43.1214L346.31 43.6113L346.181 44.0995L346.042 44.586L345.894 45.0705L345.737 45.5529L345.57 46.0332L345.395 46.5112L345.21 46.9868L345.015 47.4598L344.812 47.9302L344.599 48.3978L344.378 48.8625L344.147 49.3242L343.908 49.7827L343.66 50.238L343.403 50.6899L343.137 51.1384L342.862 51.5832L342.579 52.0243L342.287 52.4616L341.987 52.895L341.679 53.3243L341.362 53.7495L341.036 54.1705L340.703 54.587L340.361 54.9991L340.012 55.4067L339.654 55.8095L339.289 56.2077L338.916 56.6009L338.535 56.9892L338.146 57.3724L337.75 57.7505L337.347 58.1234L336.936 58.4909L336.518 58.853L336.093 59.2096L335.661 59.5606L335.221 59.906L334.775 60.2456L334.323 60.5793L333.863 60.9072L333.398 61.229L332.925 61.5449L332.447 61.8545L331.962 62.158L331.471 62.4552L330.974 62.7461L330.472 63.0306L329.963 63.3086L329.449 63.5801L328.93 63.845L328.405 64.1033L327.874 64.3549L327.339 64.5997L326.799 64.8378L326.253 65.069L325.703 65.2934L325.148 65.5108L324.589 65.7212L324.025 65.9247L323.457 66.121L322.885 66.3104L322.309 66.4926L321.729 66.6676L321.145 66.8355L320.558 66.9963L319.967 67.1497L319.372 67.296L318.775 67.435L318.174 67.5667L317.571 67.6912L316.964 67.8083L316.355 67.9181L315.743 68.0206L315.129 68.1158L314.512 68.2037L313.893 68.2843L313.273 68.3575L312.65 68.4234L312.025 68.482L311.399 68.5333L310.771 68.5773L310.142 68.6141L309.512 68.6435L308.881 68.6658L308.248 68.6808L307.615 68.6886L306.981 68.6892L306.347 68.6827L305.712 68.6691L305.077 68.6484L304.441 68.6206L303.806 68.5859L303.17 68.5441L302.535 68.4954L301.9 68.4398L301.266 68.3774L300.632 68.3082L299.999 68.2322L299.366 68.1495L298.735 68.0601L298.105 67.9642L297.476 67.8618L296.848 67.7528L296.222 67.6375L295.598 67.5158L294.975 67.3878L294.354 67.2536L293.735 67.1133L293.118 66.9669L292.503 66.8145L291.891 66.6562L291.28 66.4921L290.673 66.3221L290.068 66.1465L289.466 65.9653L288.866 65.7786L288.27 65.5865L287.677 65.389L287.087 65.1862L286.5 64.9783L285.916 64.7654L285.336 64.5475L284.76 64.3247L284.187 64.0971L283.618 63.8649L283.053 63.6281L282.492 63.3868L281.935 63.1412L281.382 62.8913L280.833 62.6372L280.289 62.3791L279.749 62.1171L279.214 61.8512L278.683 61.5817L278.156 61.3085L277.635 61.0319L277.118 60.7519L276.606 60.4687L276.099 60.1823L275.597 59.8929L275.101 59.6006L274.609 59.3056L274.122 59.0079L273.641 58.7077L273.165 58.4051L272.695 58.1002L272.23 57.7931L271.77 57.4841L271.316 57.1731L270.868 56.8604L270.425 56.546L269.988 56.2301L269.557 55.9128L269.132 55.5943L268.712 55.2746L268.298 54.954L267.89 54.6325L267.488 54.3102L267.092 53.9874L266.702 53.6641L266.318 53.3404L265.941 53.0166L265.569 52.6926L265.203 52.3688L264.843 52.0451L264.49 51.7217L264.142 51.3988L263.801 51.0765L263.466 50.7549L263.137 50.4342L262.815 50.1145L262.498 49.7958L262.188 49.4785L261.883 49.1625L261.585 48.848L261.294 48.5351L261.008 48.2241L260.728 47.9149L260.455 47.6077L260.188 47.3028L259.927 47.0001L259.671 46.6998L259.422 46.402L259.18 46.1069L258.943 45.8146L258.712 45.5252L258.487 45.2389L258.268 44.9557L258.055 44.6758L257.848 44.3993L257.646 44.1263L257.451 43.8569L257.261 43.5914L257.077 43.3296L256.899 43.0719L256.726 42.8183L256.559 42.5689L256.397 42.3238L256.241 42.0831L256.09 41.847L255.945 41.6156L255.805 41.3889L255.67 41.167L255.54 40.9502L255.416 40.7384L255.297 40.5318L255.182 40.3304L255.073 40.1344L254.968 39.9439L254.869 39.7589L254.774 39.5796L254.683 39.406L254.597 39.2383L254.516 39.0764L254.439 38.9206L254.367 38.7709L254.299 38.6273L254.234 38.4899L254.174 38.3589L254.119 38.2343L254.066 38.1161L254.018 38.0046L253.974 37.8996L253.933 37.8013L253.896 37.7097L253.862 37.625L253.832 37.5472L253.805 37.4762L253.781 37.4123L253.76 37.3555L253.742 37.3057L253.727 37.2631L253.715 37.2277L253.706 37.1995L253.699 37.1787L253.695 37.1652L253.693 37.159L253.693 37.1603L253.696 37.1691L253.7 37.1853L253.707 37.209L253.716 37.2403L253.726 37.2792L253.738 37.3257L253.751 37.3797L253.766 37.4415L253.782 37.5108L253.8 37.5879L253.818 37.6726L253.838 37.7651L253.858 37.8652L253.88 37.9731L253.901 38.0886L253.924 38.2119L253.947 38.3428L253.97 38.4815L253.994 38.6279L254.017 38.782L254.041 38.9437L254.064 39.1132L254.088 39.2902L254.111 39.4749L254.133 39.6672L254.155 39.8671L254.177 40.0746L254.197 40.2896L254.217 40.5121L254.236 40.742L254.253 40.9794L254.27 41.2243L254.285 41.4764L254.299 41.7359L254.311 42.0026L254.322 42.2766L254.331 42.5578L254.338 42.8461L254.343 43.1414L254.346 43.4438L254.347 43.7532L254.346 44.0694L254.342 44.3925L254.336 44.7224L254.328 45.0589L254.316 45.4021L254.302 45.7519L254.286 46.1082L254.266 46.4709L254.243 46.84L254.217 47.2153L254.188 47.5968L254.156 47.9844L254.121 48.378L254.081 48.7776L254.039 49.183L253.992 49.5941L253.942 50.011L253.889 50.4334L253.831 50.8612L253.769 51.2945L253.704 51.733L253.634 52.1767L253.56 52.6254L253.481 53.0792L253.399 53.5378L253.312 54.0011L253.22 54.4691L253.124 54.9416L253.024 55.4185L252.918 55.8998L252.808 56.3852L252.693 56.8747L252.574 57.3682L252.449 57.8655L252.319 58.3666L252.185 58.8712L252.045 59.3793L251.9 59.8907L251.75 60.4054L251.595 60.9232L251.434 61.4439L251.269 61.9675L251.097 62.4938L250.921 63.0227L250.739 63.554L250.552 64.0876L250.359 64.6234L250.16 65.1613L249.956 65.7011L249.747 66.2426L249.532 66.7858L249.311 67.3305L249.085 67.8766L248.853 68.4239L248.615 68.9723L248.371 69.5216L248.122 70.0718L247.868 70.6226L247.607 71.174L247.341 71.7257L247.069 72.2777L246.791 72.8298L246.508 73.3818L246.218 73.9337L245.923 74.4853L245.623 75.0364L245.316 75.5869L245.004 76.1366L244.687 76.6855L244.363 77.2333L244.034 77.78L243.699 78.3254L243.359 78.8693L243.013 79.4116L242.662 79.9521L242.305 80.4908L241.942 81.0275L241.574 81.562L241.201 82.0943L240.822 82.624L240.438 83.1512L240.048 83.6758L239.654 84.1974L239.254 84.7161L238.848 85.2316L238.438 85.7439L238.023 86.2528L237.602 86.7582L237.177 87.2599L236.746 87.7578L236.311 88.2518L235.871 88.7418L235.426 89.2276L234.976 89.709L234.522 90.1861L234.064 90.6586L233.6 91.1263L233.133 91.5893L232.661 92.0474L232.185 92.5004L231.704 92.9482L231.22 93.3908L230.731 93.8279L230.239 94.2596L229.742 94.6855L229.242 95.1058L228.738 95.5202L228.231 95.9286L227.72 96.3309L227.206 96.7271L226.688 97.117L226.167 97.5004L225.643 97.8774L225.116 98.2478L224.586 98.6115L224.053 98.9685L223.517 99.3185L222.979 99.6616L222.438 99.9976L221.894 100.326L221.349 100.648L220.801 100.962L220.251 101.269L219.699 101.569L219.145 101.86L218.59 102.145L218.032 102.421L217.474 102.69L216.913 102.95L216.352 103.203L215.789 103.448L215.225 103.685L214.66 103.914L214.094 104.134L213.528 104.346L212.961 104.55L212.394 104.746L211.826 104.933L211.258 105.111L210.689 105.282L210.121 105.443L209.553 105.596L208.985 105.741L208.418 105.876L207.851 106.003L207.284 106.122L206.719 106.231L206.154 106.332L205.591 106.424L205.028 106.507L204.467 106.581L203.907 106.646L203.349 106.703L202.792 106.75L202.237 106.789L201.684 106.818L201.133 106.839L200.585 106.851L200.038 106.854L199.494 106.847L198.952 106.832L198.414 106.808L197.878 106.775L197.344 106.733L196.814 106.682L196.287 106.622L195.764 106.554L195.244 106.476L194.727 106.39L194.214 106.295L193.705 106.19L193.2 106.078L192.698 105.956L192.201 105.826L191.708 105.687L191.22 105.539L190.736 105.383L190.257 105.219L189.782 105.045L189.313 104.864L188.848 104.674L188.389 104.475L187.934 104.269L187.485 104.054L187.042 103.83L186.603 103.599L186.171 103.36L185.744 103.112L185.324 102.857L184.909 102.594L184.5 102.323L184.097 102.044L183.701 101.758L183.311 101.464L182.928 101.162L182.551 100.853L182.18 100.537L181.817 100.213L181.46 99.8827L181.11 99.5449L180.768 99.2001L180.432 98.8484L180.104 98.4899L179.782 98.1246L179.469 97.7527L179.162 97.3743L178.864 96.9894L178.572 96.5982L178.289 96.2007L178.013 95.7972L177.745 95.3876L177.485 94.9721L177.233 94.5508L176.989 94.1237L176.753 93.6911L176.525 93.253L176.305 92.8096L176.094 92.3609L175.891 91.907L175.696 91.4481L175.51 90.9843L175.332 90.5158L175.163 90.0425L175.002 89.5647L174.85 89.0825L174.707 88.596L174.572 88.1053L174.446 87.6106L174.329 87.1119L174.22 86.6094L174.121 86.1033L174.03 85.5936L173.948 85.0804L173.875 84.564L173.811 84.0444L173.756 83.5218L173.71 82.9963L173.673 82.468L173.645 81.9371L173.626 81.4036L173.616 80.8678L173.615 80.3297L173.623 79.7895L173.64 79.2474L173.666 78.7033L173.701 78.1576L173.745 77.6103L173.798 77.0615L173.86 76.5114L173.932 75.9602L174.012 75.4078L174.101 74.8546L174.199 74.3006L174.306 73.7459L174.421 73.1907L174.546 72.6351L174.68 72.0793L174.822 71.5233L174.973 70.9674L175.133 70.4115L175.302 69.856L175.479 69.3008L175.665 68.7462L175.86 68.1922L176.063 67.639L176.274 67.0867L176.494 66.5355L176.723 65.9854L176.959 65.4366L177.205 64.8892L177.458 64.3433L177.719 63.7991L177.989 63.2567L178.266 62.7162L178.552 62.1776L178.846 61.6413L179.147 61.1071L179.456 60.5754L179.773 60.0461L180.097 59.5195L180.429 58.9955L180.769 58.4744L181.116 57.9562L181.47 57.441L181.831 56.929L182.2 56.4203L182.575 55.9149L182.958 55.413L183.347 54.9146L183.743 54.4199L184.146 53.929L184.556 53.4419L184.971 52.9588L185.394 52.4798L185.822 52.0049L186.257 51.5342L186.698 51.0678L187.144 50.6059L187.597 50.1485L188.055 49.6956L188.519 49.2474L188.989 48.804L189.464 48.3653L189.944 47.9316L190.429 47.5028L190.92 47.0791L191.415 46.6605L191.915 46.2471L192.42 45.8389L192.93 45.4361L193.444 45.0386L193.962 44.6466L194.485 44.26L195.012 43.879L195.542 43.5037L196.077 43.1339L196.615 42.7699L197.157 42.4117L197.702 42.0592L198.251 41.7127L198.803 41.3719L199.358 41.0372L199.916 40.7084L200.477 40.3856L201.04 40.0688L201.606 39.7581L202.174 39.4535L202.745 39.155L203.318 38.8626L203.893 38.5764L204.469 38.2964L205.048 38.0226L205.628 37.7551L206.21 37.4937L206.792 37.2386L207.377 36.9897L207.962 36.7471L208.548 36.5108L209.135 36.2807L209.723 36.0568L210.311 35.8392L210.899 35.6279L211.488 35.4228L212.077 35.2239L212.666 35.0313L213.255 34.8449L213.843 34.6646L214.432 34.4905L215.019 34.3226L215.606 34.1608L216.192 34.0051L216.778 33.8554L217.362 33.7118L217.945 33.5742L218.526 33.4426L219.107 33.3169L219.685 33.1972L220.262 33.0832L220.837 32.9751L221.41 32.8728L221.982 32.7762L222.55 32.6852L223.117 32.5999L223.681 32.5202L224.243 32.446L224.802 32.3772L225.358 32.3139L225.911 32.2558L226.461 32.2031L227.008 32.1556L227.551 32.1132L228.092 32.0759L228.629 32.0436L229.162 32.0162L229.691 31.9937L230.217 31.976L230.739 31.963L231.256 31.9546L231.77 31.9507L232.279 31.9514L232.784 31.9564L233.285 31.9657L233.781 31.9792L234.273 31.9968L234.759 32.0185L235.241 32.0441L235.718 32.0735L236.19 32.1067L236.657 32.1436L237.119 32.184L237.576 32.2278L238.027 32.2751L238.473 32.3255L238.913 32.3792L239.348 32.4359L239.777 32.4955L240.2 32.558L240.618 32.6232L241.03 32.691L241.435 32.7613L241.835 32.8341L242.229 32.9091L242.617 32.9864L242.998 33.0657L243.374 33.1469L243.743 33.23L244.106 33.3149L244.462 33.4013L244.812 33.4892L245.155 33.5786L245.492 33.6691L245.823 33.7609L246.147 33.8536L246.464 33.9473L246.774 34.0417L247.078 34.1368L247.375 34.2325L247.665 34.3285L247.949 34.4249L248.226 34.5215L248.495 34.6181L248.758 34.7147L249.014 34.8111L249.264 34.9071L249.506 35.0028L249.741 35.0979L249.97 35.1923L250.191 35.2859L250.406 35.3787L250.614 35.4704L250.814 35.5609L251.008 35.6502L251.195 35.7381L251.375 35.8244L251.548 35.9091L251.714 35.9921L251.873 36.0732L252.025 36.1523L252.17 36.2292L252.309 36.304L252.441 36.3764L252.566 36.4463L252.684 36.5137L252.795 36.5783L252.9 36.6402L252.998 36.6991L253.089 36.755L253.174 36.8078L253.252 36.8573L253.323 36.9035L253.389 36.9461L253.447 36.9852L253.499 37.0206L253.545 37.0522L253.585 37.0799L253.618 37.1036L253.645 37.1232L253.666 37.1386L253.681 37.1497L253.69 37.1564L253.693 37.1586L253.69 37.1562L253.681 37.1492L253.666 37.1373L253.646 37.1206L253.62 37.0989L253.588 37.0721L253.551 37.0403L253.509 37.0032L253.461 36.9607L253.408 36.913L253.35 36.8597L253.286 36.8009L253.218 36.7365L253.145 36.6664L253.067 36.5905L252.984 36.5088L252.897 36.4211L252.804 36.3275L252.708 36.2279L252.607 36.1221L252.502 36.0102L252.393 35.892L252.279 35.7676L252.162 35.6368L252.04 35.4996L251.915 35.356L251.786 35.2059L251.654 35.0492L251.518 34.886L251.379 34.7161L251.236 34.5395L251.09 34.3563L250.941 34.1663L250.79 33.9695L250.635 33.7658L250.478 33.5554L250.318 33.338L250.155 33.1138L249.99 32.8826L249.823 32.6445L249.654 32.3994L249.483 32.1474L249.309 31.8883L249.134 31.6223L248.957 31.3492L248.779 31.0691L248.599 30.782L248.418 30.4878L248.235 30.1866L248.051 29.8783L247.867 29.5631L247.681 29.2408L247.495 28.9115L247.308 28.5752L247.121 28.2319L246.933 27.8816L246.744 27.5244L246.556 27.1602L246.368 26.7892L246.179 26.4112L245.991 26.0264L245.803 25.6347L245.616 25.2363L245.429 24.8311L245.242 24.4191L245.057 24.0005L244.872 23.5752L244.688 23.1433L244.506 22.7049L244.324 22.26L244.144 21.8086L243.966 21.3507L243.789 20.8866L243.614 20.4161L243.44 19.9394L243.269 19.4565L243.099 18.9676L242.932 18.4725L242.766 17.9715L242.603 17.4646L242.443 16.9518L242.285 16.4333L242.13 15.9091L241.977 15.3793L241.828 14.844L241.681 14.3032L241.538 13.757L241.397 13.2056L241.26 12.649L241.127 12.0873L240.997 11.5206L240.87 10.9489L240.747 10.3725L240.628 9.79133L240.512 9.20554L240.401 8.61523L240.293 8.02051L240.19 7.42147L240.091 6.81823L239.996 6.21088L239.906 5.59955L239.82 4.98434L239.738 4.36536L239.661 3.74273L239.589 3.11655L239.521 2.48696L239.459 1.85406L239.401 1.21798L239.348 0.578842L239.301 -0.0632401L239.258 -0.708138L239.221 -1.35573L239.188 -2.00588L239.162 -2.65848L239.14 -3.31338L239.124 -3.97047L239.113 -4.6296L239.108 -5.29066L239.109 -5.9535L239.115 -6.61798L239.127 -7.284L239.144 -7.95139L239.167 -8.62002L239.197 -9.28977L239.231 -9.96048L239.272 -10.632L239.319 -11.3043L239.372 -11.9771L239.431 -12.6503L239.495 -13.3238L239.566 -13.9974L239.643 -14.671L239.726 -15.3444L239.815 -16.0175L239.91 -16.6903L240.012 -17.3624L240.119 -18.0338L240.233 -18.7043L240.353 -19.3738L240.479 -20.0421L240.612 -20.7091L240.75 -21.3747L240.895 -22.0387L241.046 -22.7009L241.204 -23.3613L241.367 -24.0196L241.537 -24.6757L241.713 -25.3295L241.895 -25.9809L242.083 -26.6296L242.278 -27.2756L242.479 -27.9187L242.686 -28.5588L242.898 -29.1956L243.118 -29.8292L243.343 -30.4593L243.574 -31.0857L243.811 -31.7085L244.054 -32.3273L244.304 -32.9421L244.559 -33.5527L244.82 -34.1591L245.086 -34.761L245.359 -35.3583L245.637 -35.9509L245.921 -36.5387L246.211 -37.1215L246.507 -37.6991L246.808 -38.2716L247.114 -38.8386L247.426 -39.4002L247.743 -39.9561L248.066 -40.5062L248.394 -41.0505L248.727 -41.5887L249.066 -42.1208L249.409 -42.6467L249.757 -43.1662L250.111 -43.6792L250.469 -44.1855L250.832 -44.6852L251.2 -45.178L251.573 -45.6638L251.95 -46.1426L252.332 -46.6141L252.718 -47.0784L253.108 -47.5353L253.503 -47.9847L253.901 -48.4264L254.304 -48.8605L254.711 -49.2867L255.122 -49.7051L255.537 -50.1154L255.955 -50.5176L256.377 -50.9117L256.802 -51.2974L257.231 -51.6748L257.664 -52.0437L258.099 -52.404L258.538 -52.7558L258.979 -53.0988L259.424 -53.433L259.871 -53.7583L260.321 -54.0748L260.774 -54.3822L261.229 -54.6805L261.687 -54.9696L262.147 -55.2495L262.609 -55.5202L263.073 -55.7815L263.539 -56.0333L264.007 -56.2758L264.477 -56.5086L264.948 -56.732L265.421 -56.9456L265.895 -57.1497L266.37 -57.344L266.847 -57.5285L267.324 -57.7032L267.803 -57.8681L268.282 -58.0231L268.762 -58.1682L269.242 -58.3033L269.723 -58.4284L270.204 -58.5436L270.686 -58.6487L271.167 -58.7438L271.649 -58.8288L272.13 -58.9037L272.611 -58.9685L273.091 -59.0231L273.571 -59.0677L274.051 -59.1021L274.529 -59.1264L275.007 -59.1405L275.483 -59.1445L275.959 -59.1384L276.433 -59.1221L276.906 -59.0957L277.377 -59.0591L277.846 -59.0125L278.314 -58.9558L278.78 -58.8889L279.244 -58.8121L279.706 -58.7251L280.166 -58.6282L280.623 -58.5213L281.078 -58.4044L281.53 -58.2776L281.979 -58.1409L282.426 -57.9944L282.87 -57.838L283.31 -57.6719L283.748 -57.496L284.182 -57.3104L284.613 -57.1152L285.04 -56.9103L285.464 -56.696L285.884 -56.4721L286.3 -56.2389L286.712 -55.9962L287.12 -55.7442L287.524 -55.483L287.924 -55.2126L288.319 -54.9331L288.71 -54.6446L289.096 -54.347L289.478 -54.0406L289.854 -53.7253L290.226 -53.4013L290.593 -53.0686L290.955 -52.7274L291.312 -52.3776L291.663 -52.0194L292.009 -51.6529L292.35 -51.2782L292.685 -50.8953L293.015 -50.5043L293.339 -50.1054L293.657 -49.6986L293.969 -49.2841L294.276 -48.8619L294.576 -48.4321L294.87 -47.9949L295.158 -47.5503L295.44 -47.0985L295.715 -46.6395L295.984 -46.1735L296.247 -45.7006L296.503 -45.2209L296.753 -44.7345L296.996 -44.2415L297.232 -43.742L297.461 -43.2363L297.684 -42.7243L297.9 -42.2061L298.108 -41.6821L298.31 -41.1521L298.505 -40.6164L298.693 -40.0752L298.873 -39.5284L299.047 -38.9763L299.213 -38.419L299.372 -37.8566L299.523 -37.2892L299.668 -36.717L299.805 -36.1401L299.934 -35.5586L300.056 -34.9727L300.171 -34.3825L300.278 -33.7881L300.378 -33.1897L300.47 -32.5874L300.555 -31.9813L300.632 -31.3717L300.702 -30.7585L300.764 -30.142L300.818 -29.5223L300.865 -28.8996L300.904 -28.2739L300.936 -27.6454L300.96 -27.0143L300.977 -26.3807L300.986 -25.7447L300.987 -25.1065L300.981 -24.4663L300.967 -23.824L300.946 -23.18L300.917 -22.5343L300.88 -21.8871L300.836 -21.2385L300.785 -20.5886L300.726 -19.9377L300.66 -19.2858L300.586 -18.633L300.505 -17.9796L300.417 -17.3256L300.321 -16.6712L300.218 -16.0166L300.108 -15.3618L299.99 -14.707L299.866 -14.0524L299.734 -13.398L299.595 -12.744L299.45 -12.0906L299.297 -11.4378L299.137 -10.7858L298.971 -10.1348L298.798 -9.48486L298.618 -8.8361L298.431 -8.18867L298.238 -7.54269L298.038 -6.89829L297.832 -6.2556L297.619 -5.61473L297.4 -4.97583L297.174 -4.339L296.943 -3.70436L296.705 -3.07205L296.461 -2.44217L296.212 -1.81485L295.956 -1.1902L295.695 -0.568333L295.428 0.0506363L295.155 0.666595L294.877 1.27943L294.593 1.88904L294.304 2.4953L294.01 3.09813L293.71 3.69741L293.405 4.29303L293.096 4.8849L292.781 5.47292L292.462 6.057L292.138 6.63702L291.809 7.21291L291.476 7.78456L291.139 8.35188L290.797 8.9148L290.451 9.47321L290.102 10.027L289.748 10.5762L289.39 11.1206L289.029 11.6602L288.664 12.1949L288.295 12.7246L287.923 13.2492L287.548 13.7687L287.17 14.283L286.789 14.792L286.405 15.2957L286.018 15.7941L285.628 16.2869L285.236 16.7742L284.841 17.256L284.445 17.7321L284.046 18.2026L283.644 18.6673L283.241 19.1263L282.837 19.5794L282.43 20.0266L282.022 20.468L281.613 20.9034L281.202 21.3328L280.79 21.7561L280.377 22.1735L279.963 22.5847L279.549 22.9898L279.133 23.3888L278.718 23.7816L278.301 24.1682L277.885 24.5486L277.468 24.9228L277.052 25.2907L276.635 25.6524L276.219 26.0079L275.803 26.357L275.388 26.6999L274.973 27.0366L274.559 27.3669L274.146 27.6909L273.734 28.0087L273.323 28.3202L272.913 28.6255L272.505 28.9245L272.098 29.2173L271.693 29.5038L271.29 29.7841L270.889 30.0583L270.489 30.3263L270.092 30.5881L269.697 30.8438L269.304 31.0935L268.914 31.3371L268.527 31.5746L268.142 31.8062L267.76 32.0318L267.381 32.2515L267.006 32.4653L266.633 32.6733L266.264 32.8754L265.898 33.0719L265.536 33.2627L265.177 33.4478L264.822 33.6273L264.472 33.8013L264.125 33.9698L263.782 34.1329L263.443 34.2907L263.109 34.4431L262.779 34.5903L262.454 34.7324L262.133 34.8693L261.817 35.0013L261.506 35.1283L261.199 35.2504L260.898 35.3676L260.602 35.4802L260.311 35.5881L260.025 35.6914L259.745 35.7903L259.47 35.8847L259.2 35.9748L258.936 36.0607L258.678 36.1424L258.426 36.2201L258.179 36.2938L257.939 36.3636L257.704 36.4296L257.476 36.492L257.253 36.5507L257.037 36.606L256.827 36.6578L256.623 36.7064L256.426 36.7517L256.236 36.794L256.051 36.8332L255.874 36.8696L255.703 36.9032L255.539 36.9341L255.381 36.9624L255.23 36.9882L255.086 37.0117L254.949 37.033L254.819 37.0521L254.696 37.0691L254.58 37.0843L254.47 37.0976L254.368 37.1093L254.273 37.1193L254.185 37.1279L254.104 37.1352L254.031 37.1412L253.964 37.1461L253.905 37.15L253.853 37.1529L253.809 37.1552L253.771 37.1567L253.741 37.1577L253.718 37.1583L253.702 37.1586L253.694 37.1586L253.693 37.1586L253.699 37.1587L253.713 37.1589L253.734 37.1594L253.762 37.1603L253.798 37.1617L253.84 37.1637L253.89 37.1664L253.947 37.1701L254.012 37.1747L254.084 37.1803L254.162 37.1872L254.248 37.1955L254.341 37.2051L254.442 37.2163L254.549 37.2292L254.663 37.2438L254.784 37.2604L254.913 37.2789L255.048 37.2995L255.19 37.3224L255.339 37.3476L255.495 37.3752L255.657 37.4054L255.826 37.4382L256.002 37.4738L256.184 37.5123L256.373 37.5537L256.569 37.5982L256.771 37.6458L256.979 37.6968L257.193 37.7511L257.414 37.8088L257.641 37.8702L257.874 37.9352L258.113 38.004L258.358 38.0766L258.608 38.1532L258.865 38.2338L259.127 38.3185L259.395 38.4074L259.669 38.5007L259.948 38.5983L260.232 38.7004L260.522 38.8071L260.816 38.9183L261.116 39.0343L261.421 39.1551L261.731 39.2807L262.046 39.4113L262.365 39.5469L262.689 39.6875L263.018 39.8333L263.351 39.9843L263.689 40.1406L264.03 40.3022L264.376 40.4693L264.726 40.6417L265.08 40.8197L265.437 41.0033L265.798 41.1925L266.163 41.3874L266.531 41.588L266.903 41.7944L267.278 42.0066L267.656 42.2247L268.037 42.4487L268.421 42.6786L268.808 42.9145L269.197 43.1564L269.589 43.4044L269.983 43.6585L270.38 43.9186L270.779 44.1849L271.18 44.4574L271.583 44.736L271.987 45.0209L272.393 45.3119L272.801 45.6092L273.211 45.9127L273.621 46.2225L274.033 46.5386L274.446 46.8609L274.859 47.1896L275.274 47.5245L275.689 47.8656L276.105 48.2131L276.521 48.5668L276.938 48.9268L277.354 49.293L277.771 49.6655L278.187 50.0442L278.604 50.4291L279.019 50.8202L279.435 51.2175L279.85 51.6209L280.264 52.0305L280.677 52.4461L281.089 52.8679L281.5 53.2956L281.91 53.7294L282.318 54.1691L282.725 54.6147L283.131 55.0662L283.534 55.5236L283.936 55.9867L284.335 56.4556L284.733 56.9302L285.128 57.4104L285.521 57.8962L285.911 58.3876L286.299 58.8844L286.684 59.3867L287.066 59.8942L287.445 60.4071L287.821 60.9252L288.194 61.4484L288.563 61.9767L288.929 62.51L289.291 63.0483L289.65 63.5914L290.005 64.1392L290.356 64.6918L290.703 65.249L291.046 65.8107L291.384 66.3768L291.719 66.9473L292.048 67.522L292.374 68.1009L292.694 68.6839L293.01 69.2708L293.321 69.8616L293.627 70.4562L293.928 71.0545L294.224 71.6564L294.514 72.2617L294.799 72.8704L295.079 73.4824L295.353 74.0975L295.622 74.7157L295.885 75.3367L296.142 75.9606L296.394 76.5872L296.639 77.2164L296.878 77.8481L297.112 78.4821L297.339 79.1183L297.559 79.7567L297.774 80.397L297.982 81.0392L298.184 81.6832L298.379 82.3287L298.567 82.9758L298.749 83.6242L298.924 84.2738L299.092 84.9246L299.254 85.5763L299.409 86.2288L299.556 86.8821L299.697 87.5359L299.83 88.1902L299.957 88.8448L300.076 89.4996L300.189 90.1544L300.294 90.8091L300.391 91.4636L300.482 92.1177L300.565 92.7713L300.64 93.4242L300.709 94.0764L300.77 94.7276L300.823 95.3777L300.869 96.0267L300.908 96.6743L300.939 97.3204L300.962 97.965L300.978 98.6077L300.986 99.2485L300.987 99.8873L300.98 100.524L300.966 101.158L300.944 101.79L300.914 102.419L300.877 103.046L300.832 103.669L300.78 104.29L300.72 104.907L300.652 105.521L300.577 106.132L300.494 106.739L300.404 107.342L300.306 107.942L300.201 108.537L300.088 109.129L299.968 109.716L299.841 110.298L299.706 110.877L299.564 111.45L299.414 112.019L299.257 112.583L299.093 113.141L298.921 113.695L298.743 114.243L298.557 114.786L298.364 115.323L298.164 115.855L297.958 116.38L297.744 116.9L297.523 117.414L297.295 117.921L297.061 118.423L296.82 118.917L296.572 119.406L296.318 119.887L296.057 120.362L295.79 120.83L295.516 121.291L295.236 121.744L294.95 122.191L294.657 122.63L294.358 123.062L294.054 123.486L293.743 123.903L293.427 124.312L293.104 124.713L292.776 125.106L292.443 125.491L292.103 125.868L291.759 126.237L291.409 126.598L291.053 126.95L290.693 127.293L290.327 127.628L289.957 127.955L289.581 128.272L289.201 128.581L288.816 128.881L288.427 129.172L288.032 129.454L287.634 129.727L287.231 129.991L286.824 130.245L286.413 130.491L285.998 130.726L285.579 130.953L285.157 131.17L284.73 131.377L284.3 131.575L283.867 131.763L283.431 131.942L282.991 132.111L282.548 132.27L282.102 132.419L281.653 132.558L281.202 132.688L280.748 132.808L280.291 132.917L279.832 133.017L279.371 133.107L278.908 133.186L278.442 133.256L277.975 133.315L277.506 133.365L277.035 133.404L276.563 133.433L276.089 133.452L275.614 133.461L275.137 133.46L274.66 133.449L274.182 133.427L273.703 133.395L273.223 133.354L272.743 133.302L272.262 133.24L271.781 133.168L271.299 133.085L270.818 132.993L270.336 132.891L269.855 132.778L269.374 132.656L268.894 132.523L268.413 132.381L267.934 132.229L267.455 132.067L266.978 131.895L266.501 131.713L266.025 131.521L265.551 131.32L265.077 131.109L264.606 130.888L264.136 130.658L263.667 130.418L263.201 130.169L262.736 129.91L262.273 129.642L261.813 129.365L261.355 129.078L260.899 128.782L260.445 128.477L259.994 128.163L259.546 127.84L259.101 127.509L258.658 127.168L258.219 126.819L257.783 126.461L257.35 126.094L256.92 125.719L256.493 125.336L256.07 124.944L255.651 124.544L255.235 124.136L254.823 123.719L254.416 123.295L254.012 122.863L253.612 122.424L253.216 121.977L252.824 121.522L252.437 121.059L252.054 120.59L251.676 120.113L251.302 119.629L250.933 119.138L250.568 118.64L250.209 118.136L249.854 117.625L249.504 117.107L249.159 116.583L248.819 116.052L248.485 115.516L248.155 114.973L247.831 114.425L247.512 113.87L247.199 113.31L246.891 112.745L246.589 112.174L246.292 111.598L246 111.016L245.715 110.43L245.435 109.839L245.161 109.242L244.892 108.642L244.63 108.037L244.373 107.427L244.122 106.814L243.877 106.196L243.638 105.574L243.405 104.949L243.179 104.32L242.958 103.687L242.743 103.051L242.535 102.412L242.332 101.769L242.136 101.124L241.946 100.476L241.762 99.8256L241.584 99.1725L241.413 98.517L241.248 97.8592L241.089 97.1994L240.936 96.5377L240.789 95.8742L240.649 95.209L240.515 94.5424L240.387 93.8744L240.265 93.2052L240.15 92.5349L240.041 91.8638L239.937 91.1918L239.84 90.5193L239.75 89.8463L239.665 89.1729L239.587 88.4993L239.514 87.8257L239.448 87.1522L239.387 86.4789L239.333 85.8059L239.285 85.1335L239.242 84.4618L239.206 83.7908L239.175 83.1208L239.15 82.4518L239.131 81.7841L239.118 81.1177L239.11 80.4528L239.108 79.7895L239.111 79.1279L239.121 78.4682L239.135 77.8106L239.155 77.1551L239.181 76.5018L239.211 75.851L239.247 75.2027L239.288 74.557L239.335 73.9142L239.386 73.2742L239.443 72.6373L239.504 72.0035L239.57 71.373L239.641 70.7459L239.716 70.1223L239.797 69.5023L239.882 68.886L239.971 68.2736L240.064 67.6651L240.162 67.0608L240.265 66.4606L240.371 65.8646L240.481 65.2731L240.596 64.6861L240.714 64.1036L240.836 63.5259L240.961 62.9529L241.091 62.3849L241.223 61.8218L241.36 61.2637L241.499 60.7109L241.642 60.1633L241.787 59.621L241.936 59.0842L242.088 58.5528L242.242 58.0271L242.399 57.507L242.559 56.9927L242.721 56.4841L242.886 55.9815L243.053 55.4848L243.222 54.9942L243.393 54.5096L243.566 54.0312L243.741 53.5591L243.917 53.0932L244.095 52.6336L244.275 52.1804L244.456 51.7337L244.638 51.2935L244.822 50.8598L245.006 50.4327L245.191 50.0123L245.377 49.5985L245.564 49.1914L245.752 48.7911L245.939 48.3976L246.128 48.0109L246.316 47.6311L246.504 47.2581L246.693 46.892L246.881 46.5329L247.069 46.1807L247.257 45.8355L247.444 45.4973L247.63 45.1661L247.816 44.8419L248.001 44.5247L248.185 44.2145L248.368 43.9114L248.549 43.6153L248.73 43.3262L248.908 43.0442L249.086 42.7692L249.261 42.5012L249.435 42.2402L249.607 41.9862L249.777 41.7393L249.945 41.4992L250.11 41.2662L250.273 41.04L250.434 40.8208L250.592 40.6085L250.748 40.403L250.9 40.2043L251.05 40.0124L251.196 39.8273L251.34 39.6489L251.48 39.4772L251.617 39.3122L251.75 39.1537L251.88 39.0018L252.006 38.8564L252.129 38.7175L252.247 38.5849L252.362 38.4588L252.472 38.3389L252.579 38.2253L252.681 38.1178L252.778 38.0165L252.872 37.9212L252.96 37.832L253.045 37.7486L253.124 37.6712L253.199 37.5995L253.268 37.5335L253.333 37.4732L253.392 37.4184L253.447 37.3691L253.496 37.3252L253.54 37.2867L253.579 37.2534L253.612 37.2252L253.639 37.2022L253.661 37.1841L253.677 37.1709L253.688 37.1625L253.692 37.1588L253.691 37.1598L253.684 37.1653L253.671 37.1752L253.652 37.1894L253.626 37.2079L253.595 37.2305L253.557 37.2571L253.513 37.2876L253.462 37.322L253.405 37.3601L253.342 37.4018L253.272 37.447L253.196 37.4956L253.113 37.5475L253.023 37.6025L252.927 37.6606L252.825 37.7217L252.715 37.7856L252.599 37.8522L252.476 37.9215L252.346 37.9932L252.209 38.0673L252.066 38.1437L251.915 38.2222L251.758 38.3028L251.594 38.3852L251.423 38.4695L251.245 38.5554L251.06 38.6429L250.868 38.7318L250.669 38.822L250.464 38.9134L250.251 39.0058L250.031 39.0992L249.805 39.1935L249.571 39.2884L249.331 39.3839L249.083 39.4799L248.829 39.5762L248.568 39.6727L248.3 39.7693L248.025 39.8659L247.744 39.9623L247.455 40.0585L247.16 40.1543L246.858 40.2496L246.549 40.3442L246.234 40.4381L245.912 40.5311L245.584 40.6231L245.248 40.714L244.907 40.8037L244.559 40.892L244.204 40.9789L243.843 41.0642L243.476 41.1478L243.102 41.2295L242.722 41.3094L242.336 41.3872L241.944 41.4629L241.546 41.5362L241.141 41.6073L240.731 41.6758L240.315 41.7417L239.893 41.805L239.466 41.8654L239.033 41.9229L238.594 41.9774L238.149 42.0287L237.7 42.0768L237.245 42.1216L236.784 42.163L236.319 42.2008L235.848 42.235L235.372 42.2655L234.892 42.2922L234.406 42.3149L233.916 42.3337L233.422 42.3483L232.922 42.3588L232.418 42.365L231.91 42.3668L231.398 42.3642L230.881 42.3571L230.36 42.3453L229.836 42.3289L229.307 42.3077L228.775 42.2817L228.239 42.2508L227.7 42.2148L227.157 42.1739L226.611 42.1277L226.062 42.0764L225.51 42.0199L224.954 41.958L224.396 41.8907L223.835 41.818L223.272 41.7398L222.706 41.656L222.138 41.5666L221.567 41.4715L220.995 41.3708L220.42 41.2643L219.844 41.1519L219.265 41.0338L218.686 40.9097L218.104 40.7797L217.522 40.6438L216.938 40.5018L216.353 40.3539L215.767 40.1998L215.18 40.0397L214.593 39.8734L214.005 39.701L213.416 39.5225L212.827 39.3377L212.239 39.1468L211.65 38.9496L211.061 38.7462L210.472 38.5366L209.884 38.3207L209.296 38.0986L208.709 37.8702L208.122 37.6356L207.537 37.3947L206.952 37.1475L206.369 36.8941L205.787 36.6345L205.207 36.3686L204.628 36.0965L204.051 35.8182L203.475 35.5337L202.902 35.2431L202.331 34.9463L201.761 34.6433L201.195 34.3343L200.631 34.0192L200.069 33.698L199.511 33.3708L198.955 33.0377L198.402 32.6986L197.852 32.3536L197.306 32.0028L196.763 31.6461L196.224 31.2837L195.689 30.9155L195.157 30.5417L194.629 30.1623L194.105 29.7772L193.586 29.3867L193.07 28.9907L192.56 28.5893L192.053 28.1826L191.552 27.7706L191.055 27.3534L190.563 26.9311L190.076 26.5037L189.595 26.0714L189.118 25.6341L188.647 25.1919L188.182 24.745L187.722 24.2934L187.268 23.8372L186.819 23.3765L186.377 22.9114L185.941 22.4419L185.511 21.9681L185.087 21.4902L184.669 21.0082L184.258 20.5222L183.853 20.0323L183.455 19.5387L183.064 19.0413L182.68 18.5403L182.302 18.0359L181.932 17.5281L181.568 17.0169L181.212 16.5026L180.863 15.9853L180.522 15.4649L180.188 14.9417L179.861 14.4158L179.542 13.8872L179.231 13.3561L178.927 12.8227L178.632 12.2869L178.344 11.749L178.064 11.209L177.792 10.6671L177.529 10.1233L177.273 9.5779L177.026 9.03091L176.787 8.48248L176.556 7.93273L176.334 7.38179L176.12 6.82977L175.914 6.27681L175.718 5.72303L175.529 5.16856L175.35 4.61354L175.179 4.05807L175.016 3.50231L174.863 2.94638L174.718 2.3904L174.582 1.83451L174.455 1.27885L174.337 0.72353L174.227 0.168701L174.127 -0.385517L174.035 -0.938984L173.953 -1.49157L173.879 -2.04314L173.814 -2.59356L173.759 -3.1427L173.712 -3.69043L173.675 -4.23662L173.646 -4.78112L173.627 -5.32381L173.616 -5.86456L173.615 -6.40322L173.622 -6.93968L173.639 -7.47379L173.665 -8.00543L173.699 -8.53447L173.743 -9.06076L173.795 -9.58419L173.857 -10.1046L173.927 -10.6219L174.007 -11.136L174.095 -11.6466L174.192 -12.1538L174.298 -12.6572L174.413 -13.157L174.537 -13.6528L174.669 -14.1446L174.81 -14.6323L174.96 -15.1157L175.118 -15.5947L175.285 -16.0692L175.46 -16.5391L175.644 -17.0042L175.837 -17.4644L176.037 -17.9197L176.247 -18.3698L176.464 -18.8147L176.69 -19.2543L176.923 -19.6884L177.165 -20.117L177.415 -20.5399L177.673 -20.957L177.939 -21.3682L178.212 -21.7734L178.494 -22.1726L178.783 -22.5655L179.08 -22.9521L179.384 -23.3323L179.696 -23.706L180.015 -24.0731L180.341 -24.4335L180.675 -24.7871L181.016 -25.1338L181.364 -25.4735L181.718 -25.8062L182.08 -26.1317L182.448 -26.45L182.824 -26.7609L183.205 -27.0645L183.593 -27.3606L183.988 -27.6491L184.389 -27.9299L184.796 -28.2031L185.209 -28.4684L185.628 -28.7259L186.054 -28.9755L186.484 -29.2171L186.921 -29.4506L187.363 -29.676L187.811 -29.8932L188.263 -30.1022L188.722 -30.3029L189.185 -30.4953L189.653 -30.6792L190.126 -30.8547L190.604 -31.0218L191.087 -31.1802L191.574 -31.3301L192.066 -31.4714L192.562 -31.604L193.062 -31.7279L193.566 -31.8431L194.074 -31.9496L194.586 -32.0472L195.102 -32.136L195.621 -32.216L196.144 -32.2871L196.67 -32.3494L197.199 -32.4027L197.731 -32.4471L198.266 -32.4826L198.804 -32.5092L199.345 -32.5268L199.889 -32.5355L200.435 -32.5352L200.983 -32.5259L201.533 -32.5077L202.085 -32.4806L202.64 -32.4445L203.196 -32.3995L203.754 -32.3455L204.313 -32.2827L204.874 -32.2109L205.436 -32.1303L206 -32.0408L206.564 -31.9425L207.129 -31.8354L207.695 -31.7195L208.262 -31.5949L208.83 -31.4615L209.397 -31.3195L209.965 -31.1688L210.534 -31.0095L211.102 -30.8417L211.67 -30.6653L212.238 -30.4805L212.806 -30.2872L213.373 -30.0856L213.939 -29.8757L214.505 -29.6575L215.07 -29.4311L215.634 -29.1965L216.198 -28.9539L216.759 -28.7032L217.32 -28.4446L217.879 -28.1781L218.437 -27.9038L218.993 -27.6217L219.547 -27.332L220.1 -27.0347L220.65 -26.7299L221.199 -26.4176L221.745 -26.098L222.289 -25.7711L222.831 -25.4371L223.37 -25.0959L223.906 -24.7478L224.44 -24.3928L224.971 -24.0309L225.499 -23.6623L226.023 -23.2871L226.545 -22.9054L227.064 -22.5173L227.579 -22.1229L228.091 -21.7222L228.6 -21.3154L229.104 -20.9027L229.606 -20.484L230.103 -20.0596L230.596 -19.6295L231.086 -19.1939L231.572 -18.7528L232.053 -18.3064L232.531 -17.8548L233.004 -17.3981L233.473 -16.9365L233.937 -16.47L234.397 -15.9988L234.852 -15.523L235.303 -15.0427L235.749 -14.5581L236.191 -14.0692L236.627 -13.5763L237.059 -13.0795L237.486 -12.5788L237.908 -12.0744L238.325 -11.5665L238.736 -11.0551L239.143 -10.5404L239.544 -10.0226L239.941 -9.50174L240.332 -8.97801L240.717 -8.45153L241.098 -7.92243L241.473 -7.39086L241.842 -6.85696L242.206 -6.32086L242.564 -5.78271L242.917 -5.24264L243.265 -4.7008L243.607 -4.15732L243.943 -3.61235L244.274 -3.06602L244.599 -2.51849L244.918 -1.96989L245.231 -1.42037L245.539 -0.870056L245.842 -0.319107L246.138 0.232346L246.429 0.784157L246.714 1.33618L246.993 1.88828L247.267 2.44031L247.535 2.99213L247.797 3.54361L248.053 4.09459L248.304 4.64493L248.549 5.1945L248.788 5.74317L249.022 6.29078L249.25 6.8372L249.472 7.38229L249.688 7.92592L249.9 8.46794L250.105 9.00822L250.305 9.54662L250.499 10.083L250.688 10.6173L250.872 11.1492L251.05 11.6788L251.222 12.2058L251.389 12.7301L251.551 13.2517L251.708 13.7702L251.86 14.2858L252.006 14.7981L252.147 15.3072L252.283 15.8128L252.414 16.3148L252.54 16.8131L252.661 17.3077L252.777 17.7983L252.888 18.2848L252.995 18.7673L253.097 19.2454L253.194 19.7191L253.287 20.1884L253.375 20.653L253.459 21.1129L253.539 21.568L253.614 22.0181L253.685 22.4632L253.752 22.9031L253.814 23.3378L253.873 23.7672L253.928 24.1911L253.979 24.6094L254.026 25.0222L254.07 25.4292L254.11 25.8303L254.147 26.2256L254.18 26.6149L254.21 26.998L254.237 27.3751L254.26 27.7458L254.281 28.1103L254.298 28.4683L254.313 28.8199L254.325 29.1649L254.334 29.5033L254.341 29.835L254.345 30.16L254.347 30.4781L254.346 30.7894L254.344 31.0937L254.339 31.3909L254.333 31.6812L254.324 31.9643L254.314 32.2402L254.302 32.509L254.289 32.7705L254.274 33.0246L254.258 33.2715L254.241 33.5109L254.222 33.7429L254.203 33.9675L254.182 34.1845L254.161 34.394L254.139 34.596L254.117 34.7904L254.094 34.9772L254.071 35.1564L254.047 35.3279L254.024 35.4917L254 35.6479L253.977 35.7964L253.953 35.9372L253.93 36.0703L253.908 36.1957L253.885 36.3133L253.864 36.4233L253.843 36.5255L253.824 36.6201L253.805 36.7069L253.787 36.7861L253.77 36.8576L253.755 36.9214L253.741 36.9776L253.729 37.0261L253.718 37.0671L253.709 37.1004L253.702 37.1262L253.697 37.1445L253.694 37.1553L253.693 37.1586L253.694 37.1545L253.698 37.143L253.704 37.1242L253.712 37.098L253.724 37.0646L253.738 37.024L253.755 36.9762L253.775 36.9212L253.798 36.8593L253.824 36.7903L253.853 36.7143L253.886 36.6315L253.922 36.5418L253.962 36.4453L254.006 36.3422L254.053 36.2324L254.104 36.116L254.159 35.9932L254.218 35.8639L254.281 35.7283L254.348 35.5864L254.419 35.4383L254.495 35.2842L254.575 35.124L254.659 34.9578L254.748 34.7858L254.842 34.6081L254.941 34.4247L255.044 34.2356L255.152 34.0411L255.265 33.8413L255.383 33.6361L255.506 33.4257L255.634 33.2102L255.767 32.9897L255.906 32.7644L256.05 32.5342L256.199 32.2994L256.354 32.0599L256.514 31.8161L256.679 31.5678L256.851 31.3153L257.027 31.0587L257.21 30.7981L257.398 30.5335L257.592 30.2652L257.792 29.9932L257.997 29.7176L258.209 29.4387L258.426 29.1563L258.65 28.8708L258.879 28.5823L259.114 28.2908L259.355 27.9964L259.603 27.6994L259.856 27.3998L260.115 27.0977L260.381 26.7934L260.653 26.4868L260.931 26.1782L261.215 25.8676L261.505 25.5552L261.801 25.2412L262.104 24.9256L262.412 24.6086L262.727 24.2903L263.048 23.9708L263.375 23.6504L263.709 23.329L264.048 23.0069L264.394 22.6841L264.746 22.3609L265.104 22.0373L265.468 21.7135L265.838 21.3895L266.214 21.0656L266.597 20.7419L266.985 20.4185L267.379 20.0955L267.78 19.7731L268.186 19.4514L268.598 19.1305L269.016 18.8105L269.44 18.4917L269.87 18.174L270.305 17.8577L270.746 17.5429L271.193 17.2297L271.645 16.9183L272.103 16.6087L272.567 16.3011L273.036 15.9956L273.51 15.6923L273.99 15.3914L274.475 15.093L274.965 14.7973L275.461 14.5042L275.961 14.214L276.467 13.9268L276.977 13.6427L277.493 13.3618L278.013 13.0843L278.538 12.8101L279.068 12.5396L279.602 12.2727L280.141 12.0096L280.684 11.7504L281.231 11.4953L281.783 11.2442L282.339 10.9974L282.899 10.7549L283.463 10.5169L284.031 10.2834L284.603 10.0545L285.178 9.83041L285.757 9.61115L286.339 9.39682L286.925 9.18753L287.515 8.98338L288.107 8.78444L288.703 8.59082L289.301 8.40261L289.903 8.21988L290.507 8.04273L291.114 7.87125L291.723 7.7055L292.335 7.54557L292.949 7.39155L293.566 7.2435L294.184 7.1015L294.805 6.96563L295.427 6.83595L296.051 6.71253L296.677 6.59544L297.304 6.48475L297.932 6.38051L298.562 6.28279L299.193 6.19164L299.825 6.10712L300.458 6.0293L301.092 5.95821L301.726 5.89391L302.361 5.83644L302.996 5.78585L303.631 5.74219L304.267 5.7055L304.902 5.6758L305.538 5.65316L306.173 5.63759L306.807 5.62913L307.441 5.6278L308.075 5.63364L308.707 5.64668L309.339 5.66693L309.97 5.69442L310.599 5.72916L311.227 5.77118L311.854 5.82049L312.479 5.87709L313.102 5.94099L313.723 6.01222L314.343 6.09077L314.96 6.17663L315.575 6.26982L316.187 6.37033L316.797 6.47816L317.405 6.59329L318.009 6.71574L318.611 6.84546L319.209 6.98247L319.804 7.12673L320.396 7.27824L320.985 7.43697L321.569 7.60291L322.15 7.77601L322.728 7.95627L323.301 8.14364L323.87 8.3381L324.435 8.53961L324.995 8.74814L325.551 8.96365L326.103 9.18609L326.65 9.41543L327.191 9.65163L327.728 9.89462L328.26 10.1444L328.786 10.4008L329.307 10.6639L329.823 10.9336L330.333 11.2099L330.837 11.4926L331.335 11.7817L331.828 12.0772L332.314 12.379L332.795 12.6869L333.269 13.0011L333.736 13.3213L334.198 13.6475L334.652 13.9797L335.1 14.3177L335.541 14.6614L335.975 15.0109L336.402 15.366L336.822 15.7266L337.235 16.0926L337.64 16.464L338.038 16.8407L338.429 17.2225L338.812 17.6094L339.187 18.0013L339.555 18.3981L339.915 18.7997L340.266 19.206L340.61 19.6169L340.946 20.0322L341.273 20.452L341.593 20.876L341.903 21.3042L342.206 21.7365L342.5 22.1727L342.786 22.6128L343.062 23.0566L343.331 23.5041L343.59 23.955L343.841 24.4094L344.083 24.8671L344.316 25.3279L344.54 25.7918L344.755 26.2586L344.96 26.7282L345.157 27.2006L345.345 27.6755L345.523 28.1528L345.692 28.6325L345.852 29.1144L346.003 29.5983L346.144 30.0842L346.275 30.572L346.398 31.0615L346.51 31.5525L346.614 32.045L346.708 32.5388L346.792 33.0338L346.867 33.5299L346.932 34.0269L346.987 34.5247L347.033 35.0233L347.07 35.5223L347.096 36.0218L347.113 36.5216L347.121 37.0216L347.121 37.1586Z" stroke="#1D2C3C" stroke-width="1.5"/>
<path fill-rule="evenodd" clip-rule="evenodd" d="M335.229 -9.5987L335.458 -9.16313L335.679 -8.72251L335.892 -8.27697L336.096 -7.82661L336.291 -7.37155L336.478 -6.91193L336.656 -6.44782L336.826 -5.97939L336.986 -5.50672L337.138 -5.02997L337.281 -4.54923L337.415 -4.06463L337.54 -3.57631L337.657 -3.08438L337.764 -2.58897L337.862 -2.09021L337.951 -1.58822L338.031 -1.08313L338.102 -0.575076L338.164 -0.0641689L338.217 0.449444L338.261 0.965648L338.295 1.4843L338.32 2.00528L338.337 2.52845L338.343 3.05369L338.341 3.58085L338.33 4.1098L338.309 4.64043L338.279 5.17258L338.24 5.70616L338.191 6.24099L338.134 6.77696L338.067 7.31394L337.991 7.85179L337.906 8.39038L337.812 8.9296L337.709 9.46927L337.596 10.0093L337.475 10.5496L337.344 11.0899L337.205 11.6302L337.056 12.1703L336.899 12.7101L336.733 13.2495L336.557 13.7883L336.373 14.3264L336.18 14.8637L335.979 15.4001L335.769 15.9354L335.55 16.4694L335.322 17.0022L335.086 17.5335L334.841 18.0633L334.588 18.5913L334.327 19.1176L334.057 19.6419L333.779 20.1642L333.493 20.6842L333.198 21.202L332.896 21.7174L332.585 22.2303L332.267 22.7405L331.941 23.248L331.607 23.7526L331.265 24.2543L330.916 24.7528L330.559 25.2482L330.195 25.7403L329.823 26.229L329.444 26.7142L329.058 27.1957L328.665 27.6736L328.265 28.1476L327.858 28.6178L327.444 29.0839L327.023 29.5459L326.596 30.0038L326.163 30.4573L325.723 30.9065L325.276 31.3513L324.824 31.7915L324.365 32.227L323.9 32.6578L323.43 33.0839L322.953 33.505L322.471 33.9212L321.984 34.3324L321.491 34.7385L320.993 35.1394L320.489 35.5351L319.981 35.9254L319.467 36.3104L318.949 36.6899L318.426 37.0639L317.898 37.4324L317.366 37.7952L316.83 38.1524L316.289 38.5038L315.745 38.8494L315.196 39.1892L314.643 39.5232L314.087 39.8512L313.527 40.1732L312.964 40.4893L312.397 40.7992L311.828 41.1031L311.255 41.4009L310.679 41.6925L310.1 41.978L309.519 42.2572L308.935 42.5302L308.349 42.797L307.761 43.0575L307.17 43.3116L306.578 43.5595L305.983 43.801L305.387 44.0363L304.789 44.2651L304.19 44.4876L303.59 44.7037L302.988 44.9135L302.385 45.1169L301.782 45.314L301.177 45.5047L300.572 45.689L299.967 45.867L299.361 46.0387L298.755 46.204L298.148 46.363L297.542 46.5158L296.936 46.6623L296.33 46.8025L295.725 46.9366L295.12 47.0644L294.516 47.186L293.913 47.3016L293.31 47.411L292.709 47.5144L292.109 47.6117L291.511 47.703L290.913 47.7884L290.318 47.8679L289.724 47.9415L289.132 48.0093L288.542 48.0714L287.954 48.1277L287.368 48.1784L286.785 48.2235L286.204 48.2631L285.626 48.2971L285.05 48.3258L284.477 48.349L283.908 48.367L283.341 48.3798L282.777 48.3874L282.217 48.39L281.66 48.3875L281.106 48.3801L280.556 48.3678L280.01 48.3508L279.468 48.329L278.93 48.3027L278.395 48.2718L277.865 48.2365L277.339 48.1968L276.817 48.1528L276.3 48.1046L275.787 48.0524L275.279 47.9961L274.776 47.9359L274.277 47.872L273.783 47.8043L273.294 47.733L272.811 47.6582L272.332 47.58L271.859 47.4984L271.391 47.4137L270.928 47.3259L270.471 47.235L270.019 47.1413L269.573 47.0448L269.133 46.9456L268.698 46.8439L268.269 46.7397L267.846 46.6331L267.429 46.5244L267.018 46.4135L266.613 46.3006L266.214 46.1859L265.822 46.0694L265.435 45.9512L265.055 45.8315L264.681 45.7104L264.313 45.5881L263.952 45.4645L263.597 45.3399L263.249 45.2143L262.908 45.088L262.572 44.9609L262.244 44.8333L261.922 44.7052L261.607 44.5768L261.298 44.4483L260.996 44.3196L260.701 44.191L260.413 44.0625L260.131 43.9344L259.856 43.8066L259.588 43.6794L259.327 43.5529L259.072 43.4271L258.825 43.3023L258.584 43.1785L258.35 43.0558L258.123 42.9344L257.902 42.8144L257.689 42.696L257.482 42.5792L257.282 42.4641L257.089 42.3509L256.903 42.2397L256.723 42.1307L256.55 42.0239L256.384 41.9194L256.225 41.8175L256.072 41.7181L255.926 41.6215L255.787 41.5276L255.654 41.4368L255.528 41.3489L255.408 41.2643L255.295 41.1829L255.189 41.1049L255.088 41.0305L254.994 40.9596L254.907 40.8925L254.826 40.8292L254.751 40.7698L254.682 40.7145L254.619 40.6634L254.563 40.6164L254.512 40.5739L254.468 40.5357L254.429 40.5022L254.396 40.4732L254.369 40.449L254.348 40.4297L254.332 40.4153L254.322 40.4059L254.318 40.4016L254.319 40.4025L254.325 40.4087L254.336 40.4202L254.353 40.4373L254.375 40.4598L254.402 40.488L254.434 40.5218L254.471 40.5615L254.513 40.607L254.559 40.6584L254.611 40.7158L254.666 40.7792L254.726 40.8488L254.791 40.9246L254.86 41.0066L254.933 41.0949L255.01 41.1897L255.091 41.2908L255.176 41.3985L255.264 41.5127L255.357 41.6335L255.453 41.7609L255.552 41.895L255.655 42.0359L255.761 42.1836L255.871 42.338L255.983 42.4994L256.099 42.6676L256.217 42.8428L256.338 43.0249L256.462 43.214L256.588 43.4101L256.716 43.6133L256.847 43.8236L256.98 44.0409L257.116 44.2654L257.253 44.497L257.392 44.7357L257.533 44.9816L257.675 45.2346L257.819 45.4948L257.965 45.7622L258.111 46.0367L258.259 46.3184L258.408 46.6073L258.558 46.9034L258.708 47.2066L258.86 47.517L259.012 47.8345L259.164 48.1592L259.317 48.4909L259.47 48.8297L259.623 49.1756L259.776 49.5286L259.929 49.8886L260.082 50.2555L260.234 50.6295L260.386 51.0103L260.537 51.3981L260.688 51.7927L260.838 52.1941L260.987 52.6023L261.135 53.0172L261.282 53.4389L261.427 53.8671L261.572 54.3019L261.714 54.7433L261.855 55.1911L261.995 55.6454L262.132 56.106L262.268 56.5729L262.401 57.0461L262.533 57.5254L262.662 58.0108L262.789 58.5022L262.913 58.9996L263.035 59.5029L263.154 60.012L263.271 60.5268L263.384 61.0472L263.495 61.5732L263.602 62.1047L263.706 62.6415L263.807 63.1837L263.905 63.731L263.999 64.2835L264.09 64.841L264.177 65.4035L264.26 65.9707L264.339 66.5427L264.415 67.1193L264.487 67.7004L264.554 68.286L264.617 68.8758L264.676 69.4699L264.731 70.0681L264.781 70.6702L264.827 71.2762L264.868 71.886L264.905 72.4994L264.937 73.1163L264.964 73.7366L264.986 74.3602L265.004 74.987L265.016 75.6168L265.024 76.2495L265.026 76.885L265.023 77.5231L265.015 78.1638L265.001 78.8069L264.983 79.4523L264.958 80.0998L264.929 80.7494L264.894 81.4008L264.853 82.0539L264.807 82.7087L264.755 83.3649L264.697 84.0225L264.634 84.6813L264.565 85.3411L264.49 86.0019L264.41 86.6634L264.323 87.3256L264.231 87.9883L264.133 88.6513L264.029 89.3146L263.919 89.9779L263.803 90.6412L263.681 91.3042L263.553 91.9669L263.418 92.6291L263.278 93.2907L263.132 93.9515L262.98 94.6113L262.821 95.2701L262.657 95.9276L262.487 96.5838L262.31 97.2385L262.127 97.8915L261.939 98.5427L261.744 99.1919L261.543 99.8391L261.336 100.484L261.124 101.127L260.905 101.767L260.68 102.404L260.449 103.039L260.212 103.67L259.969 104.299L259.721 104.924L259.466 105.546L259.206 106.164L258.94 106.779L258.668 107.39L258.39 107.997L258.106 108.6L257.817 109.198L257.522 109.793L257.222 110.382L256.916 110.968L256.605 111.548L256.288 112.124L255.965 112.694L255.638 113.259L255.305 113.82L254.967 114.374L254.623 114.923L254.275 115.467L253.921 116.004L253.563 116.536L253.2 117.062L252.831 117.581L252.458 118.095L252.081 118.601L251.698 119.102L251.311 119.595L250.92 120.082L250.524 120.562L250.124 121.035L249.72 121.501L249.311 121.96L248.899 122.412L248.482 122.856L248.061 123.292L247.637 123.721L247.209 124.142L246.777 124.556L246.342 124.961L245.904 125.359L245.462 125.748L245.017 126.129L244.568 126.502L244.117 126.867L243.662 127.223L243.205 127.571L242.745 127.91L242.283 128.24L241.818 128.562L241.35 128.874L240.881 129.178L240.409 129.473L239.934 129.759L239.458 130.036L238.98 130.303L238.501 130.561L238.02 130.81L237.537 131.05L237.052 131.28L236.567 131.501L236.08 131.712L235.592 131.914L235.104 132.106L234.614 132.288L234.124 132.461L233.633 132.624L233.142 132.777L232.65 132.921L232.158 133.054L231.666 133.178L231.174 133.292L230.682 133.396L230.191 133.49L229.699 133.574L229.209 133.648L228.719 133.712L228.229 133.766L227.741 133.81L227.254 133.844L226.767 133.869L226.282 133.883L225.798 133.887L225.316 133.881L224.836 133.865L224.357 133.839L223.88 133.803L223.405 133.757L222.932 133.701L222.461 133.635L221.993 133.56L221.527 133.474L221.063 133.379L220.603 133.273L220.145 133.158L219.69 133.033L219.238 132.898L218.789 132.754L218.344 132.6L217.901 132.436L217.463 132.262L217.028 132.079L216.597 131.887L216.169 131.685L215.746 131.474L215.327 131.253L214.912 131.023L214.501 130.784L214.094 130.536L213.692 130.278L213.295 130.012L212.902 129.736L212.514 129.452L212.131 129.159L211.753 128.857L211.38 128.546L211.013 128.227L210.65 127.899L210.294 127.563L209.942 127.218L209.596 126.865L209.256 126.504L208.921 126.135L208.593 125.758L208.27 125.373L207.954 124.98L207.643 124.579L207.339 124.171L207.04 123.756L206.749 123.332L206.463 122.902L206.184 122.464L205.912 122.019L205.646 121.568L205.387 121.109L205.135 120.644L204.89 120.172L204.651 119.693L204.419 119.208L204.195 118.716L203.977 118.219L203.767 117.715L203.564 117.205L203.368 116.69L203.179 116.169L202.998 115.642L202.824 115.11L202.658 114.572L202.499 114.029L202.347 113.482L202.203 112.929L202.067 112.371L201.938 111.809L201.817 111.242L201.703 110.67L201.597 110.095L201.499 109.515L201.409 108.931L201.326 108.343L201.252 107.752L201.185 107.157L201.126 106.558L201.074 105.956L201.031 105.351L200.995 104.742L200.967 104.131L200.947 103.517L200.935 102.9L200.931 102.281L200.935 101.66L200.946 101.036L200.966 100.41L200.993 99.7819L201.028 99.1522L201.07 98.5207L201.121 97.8877L201.179 97.2533L201.245 96.6177L201.319 95.9809L201.401 95.3431L201.49 94.7044L201.587 94.065L201.691 93.425L201.803 92.7846L201.922 92.1439L202.049 91.503L202.184 90.8621L202.326 90.2212L202.475 89.5806L202.632 88.9404L202.795 88.3006L202.967 87.6615L203.145 87.0231L203.33 86.3857L203.523 85.7492L203.722 85.1139L203.928 84.4799L204.142 83.8473L204.362 83.2162L204.589 82.5868L204.822 81.9591L205.062 81.3334L205.309 80.7096L205.562 80.0881L205.821 79.4687L206.087 78.8518L206.359 78.2374L206.637 77.6255L206.922 77.0164L207.212 76.4102L207.508 75.8069L207.81 75.2066L208.118 74.6096L208.431 74.0158L208.75 73.4254L209.074 72.8384L209.403 72.2551L209.738 71.6755L210.078 71.0996L210.423 70.5276L210.773 69.9597L211.128 69.3958L211.487 68.836L211.852 68.2805L212.22 67.7294L212.593 67.1827L212.971 66.6405L213.352 66.1029L213.738 65.57L214.128 65.0419L214.521 64.5186L214.918 64.0002L215.319 63.4868L215.723 62.9785L216.131 62.4753L216.542 61.9773L216.956 61.4846L217.373 60.9972L217.793 60.5151L218.216 60.0386L218.642 59.5675L219.07 59.1019L219.5 58.642L219.933 58.1878L220.368 57.7392L220.805 57.2964L221.244 56.8594L221.684 56.4283L222.126 56.003L222.57 55.5837L223.015 55.1703L223.462 54.7628L223.909 54.3614L224.358 53.9661L224.807 53.5768L225.258 53.1936L225.708 52.8165L226.16 52.4455L226.611 52.0807L227.063 51.7221L227.515 51.3696L227.967 51.0234L228.419 50.6833L228.87 50.3494L229.321 50.0217L229.772 49.7003L230.222 49.385L230.671 49.076L231.119 48.7731L231.566 48.4764L232.012 48.1859L232.456 47.9016L232.899 47.6234L233.34 47.3513L233.78 47.0854L234.218 46.8256L234.654 46.5718L235.088 46.3241L235.519 46.0823L235.949 45.8466L236.376 45.6168L236.8 45.3929L237.221 45.175L237.64 44.9628L238.056 44.7565L238.469 44.5559L238.879 44.361L239.285 44.1719L239.688 43.9883L240.087 43.8103L240.483 43.6378L240.875 43.4707L241.264 43.3091L241.648 43.1528L242.028 43.0018L242.404 42.8561L242.776 42.7154L243.144 42.5799L243.507 42.4494L243.865 42.3239L244.219 42.2032L244.568 42.0873L244.912 41.9762L245.251 41.8698L245.586 41.7679L245.915 41.6705L246.238 41.5775L246.557 41.4889L246.87 41.4045L247.177 41.3243L247.479 41.2481L247.775 41.176L248.066 41.1077L248.351 41.0433L248.63 40.9826L248.902 40.9255L249.169 40.8719L249.43 40.8217L249.684 40.7749L249.933 40.7312L250.175 40.6908L250.41 40.6533L250.639 40.6188L250.862 40.5871L251.078 40.5581L251.288 40.5317L251.49 40.5078L251.687 40.4863L251.876 40.4671L252.059 40.4501L252.234 40.4352L252.403 40.4222L252.565 40.411L252.72 40.4016L252.868 40.3938L253.009 40.3876L253.142 40.3827L253.269 40.3791L253.389 40.3766L253.501 40.3752L253.606 40.3748L253.704 40.3751L253.795 40.3762L253.878 40.3779L253.955 40.38L254.024 40.3825L254.085 40.3852L254.14 40.388L254.187 40.3909L254.227 40.3936L254.26 40.396L254.285 40.3982L254.303 40.3998L254.314 40.4009L254.317 40.4013L254.314 40.4009L254.303 40.3995L254.284 40.397L254.259 40.3935L254.226 40.3886L254.186 40.3823L254.139 40.3745L254.085 40.3651L254.024 40.3539L253.956 40.3409L253.881 40.326L253.798 40.3089L253.709 40.2897L253.613 40.2681L253.51 40.2442L253.4 40.2177L253.283 40.1887L253.16 40.1569L253.03 40.1222L252.893 40.0846L252.75 40.044L252.6 40.0002L252.443 39.9531L252.28 39.9027L252.111 39.8489L251.936 39.7915L251.754 39.7305L251.566 39.6657L251.372 39.597L251.172 39.5245L250.966 39.4479L250.754 39.3672L250.537 39.2822L250.313 39.193L250.084 39.0994L249.85 39.0014L249.61 38.8987L249.364 38.7915L249.114 38.6795L248.858 38.5628L248.596 38.4411L248.33 38.3146L248.059 38.183L247.783 38.0463L247.502 37.9044L247.217 37.7573L246.927 37.605L246.633 37.4472L246.334 37.284L246.031 37.1154L245.724 36.9412L245.413 36.7613L245.097 36.5759L244.778 36.3847L244.456 36.1877L244.129 35.9849L243.799 35.7763L243.466 35.5617L243.13 35.3412L242.79 35.1147L242.447 34.8822L242.101 34.6435L241.753 34.3988L241.402 34.148L241.048 33.8909L240.692 33.6277L240.333 33.3582L239.972 33.0825L239.609 32.8005L239.244 32.5122L238.878 32.2176L238.509 31.9167L238.139 31.6094L237.767 31.2958L237.395 30.9758L237.02 30.6495L236.645 30.3168L236.269 29.9777L235.892 29.6322L235.514 29.2804L235.135 28.9222L234.756 28.5576L234.377 28.1867L233.998 27.8094L233.618 27.4259L233.238 27.036L232.859 26.6398L232.48 26.2374L232.101 25.8287L231.723 25.4138L231.345 24.9927L230.969 24.5654L230.593 24.132L230.218 23.6925L229.845 23.247L229.472 22.7954L229.101 22.3378L228.732 21.8744L228.365 21.405L227.999 20.9298L227.635 20.4488L227.273 19.962L226.913 19.4696L226.556 18.9715L226.201 18.4679L225.848 17.9587L225.498 17.4441L225.151 16.9242L224.807 16.3989L224.466 15.8683L224.127 15.3326L223.792 14.7918L223.461 14.246L223.133 13.6952L222.808 13.1396L222.487 12.5791L222.17 12.014L221.857 11.4442L221.548 10.8699L221.243 10.2912L220.942 9.70812L220.645 9.12077L220.353 8.52926L220.065 7.93368L219.782 7.33412L219.504 6.73068L219.23 6.12348L218.962 5.51261L218.698 4.89817L218.44 4.28027L218.186 3.65902L217.938 3.03453L217.695 2.40691L217.458 1.77627L217.226 1.14272L217 0.506376L216.78 -0.132637L216.565 -0.774209L216.356 -1.41822L216.153 -2.06455L215.956 -2.71308L215.765 -3.36367L215.581 -4.01622L215.402 -4.6706L215.23 -5.32667L215.064 -5.98432L214.905 -6.6434L214.752 -7.30381L214.605 -7.9654L214.465 -8.62803L214.332 -9.2916L214.205 -9.95595L214.085 -10.621L213.972 -11.2865L213.866 -11.9524L213.767 -12.6185L213.674 -13.2848L213.589 -13.9511L213.51 -14.6172L213.439 -15.2829L213.375 -15.9483L213.317 -16.6131L213.267 -17.2771L213.224 -17.9403L213.189 -18.6025L213.16 -19.2635L213.139 -19.9233L213.125 -20.5817L213.118 -21.2385L213.118 -21.8936L213.126 -22.5468L213.141 -23.1981L213.164 -23.8472L213.194 -24.4941L213.231 -25.1385L213.275 -25.7805L213.327 -26.4197L213.386 -27.056L213.453 -27.6895L213.526 -28.3197L213.607 -28.9468L213.696 -29.5704L213.792 -30.1905L213.894 -30.807L214.005 -31.4196L214.122 -32.0283L214.247 -32.6329L214.379 -33.2333L214.518 -33.8293L214.664 -34.4208L214.817 -35.0077L214.977 -35.5898L215.145 -36.1671L215.319 -36.7393L215.501 -37.3064L215.689 -37.8681L215.884 -38.4245L216.086 -38.9753L216.295 -39.5204L216.51 -40.0598L216.733 -40.5932L216.961 -41.1205L217.197 -41.6417L217.439 -42.1566L217.687 -42.6651L217.942 -43.1671L218.204 -43.6624L218.471 -44.1509L218.745 -44.6326L219.025 -45.1073L219.311 -45.5748L219.603 -46.0352L219.901 -46.4882L220.204 -46.9338L220.514 -47.3719L220.829 -47.8023L221.15 -48.225L221.477 -48.6398L221.809 -49.0467L222.146 -49.4455L222.489 -49.8362L222.836 -50.2187L223.189 -50.5929L223.547 -50.9586L223.91 -51.3158L224.278 -51.6645L224.651 -52.0045L225.028 -52.3357L225.41 -52.6581L225.796 -52.9716L226.186 -53.2761L226.581 -53.5716L226.98 -53.8579L227.383 -54.135L227.79 -54.4028L228.201 -54.6613L228.616 -54.9104L229.034 -55.1501L229.456 -55.3802L229.881 -55.6008L230.309 -55.8117L230.741 -56.0129L231.176 -56.2044L231.614 -56.3861L232.054 -56.558L232.497 -56.72L232.943 -56.8722L233.392 -57.0143L233.843 -57.1465L234.296 -57.2687L234.751 -57.3808L235.208 -57.4828L235.668 -57.5747L236.129 -57.6565L236.591 -57.7282L237.056 -57.7897L237.521 -57.841L237.988 -57.8821L238.457 -57.9129L238.926 -57.9336L239.396 -57.944L239.867 -57.9442L240.339 -57.9342L240.812 -57.9139L241.285 -57.8834L241.758 -57.8426L242.231 -57.7917L242.705 -57.7305L243.178 -57.6591L243.652 -57.5775L244.125 -57.4858L244.598 -57.384L245.07 -57.272L245.542 -57.1499L246.013 -57.0177L246.483 -56.8755L246.952 -56.7233L247.42 -56.5611L247.887 -56.389L248.353 -56.2069L248.817 -56.015L249.279 -55.8133L249.74 -55.6018L250.199 -55.3806L250.656 -55.1498L251.111 -54.9093L251.564 -54.6592L252.015 -54.3997L252.463 -54.1307L252.909 -53.8523L253.353 -53.5646L253.793 -53.2677L254.231 -52.9615L254.666 -52.6463L255.098 -52.322L255.527 -51.9887L255.953 -51.6466L256.375 -51.2957L256.794 -50.936L257.209 -50.5677L257.621 -50.1908L258.029 -49.8055L258.433 -49.4117L258.834 -49.0097L259.23 -48.5995L259.622 -48.1812L260.01 -47.7548L260.394 -47.3206L260.774 -46.8786L261.149 -46.4288L261.519 -45.9715L261.885 -45.5066L262.247 -45.0344L262.603 -44.5549L262.955 -44.0682L263.301 -43.5745L263.643 -43.0738L263.98 -42.5663L264.311 -42.052L264.638 -41.5312L264.959 -41.0039L265.274 -40.4703L265.585 -39.9304L265.889 -39.3844L266.189 -38.8324L266.482 -38.2746L266.771 -37.711L267.053 -37.1418L267.329 -36.5672L267.6 -35.9872L267.865 -35.4019L268.124 -34.8117L268.377 -34.2164L268.625 -33.6164L268.866 -33.0117L269.101 -32.4024L269.33 -31.7887L269.552 -31.1708L269.769 -30.5487L269.98 -29.9227L270.184 -29.2928L270.382 -28.6592L270.573 -28.022L270.759 -27.3814L270.938 -26.7375L271.11 -26.0904L271.277 -25.4404L271.437 -24.7875L271.59 -24.1319L271.737 -23.4737L271.878 -22.8132L272.013 -22.1503L272.141 -21.4853L272.262 -20.8183L272.377 -20.1494L272.486 -19.4788L272.588 -18.8067L272.684 -18.1332L272.774 -17.4584L272.857 -16.7825L272.934 -16.1056L273.004 -15.4278L273.068 -14.7494L273.126 -14.0704L273.178 -13.391L273.223 -12.7114L273.262 -12.0316L273.295 -11.3518L273.322 -10.6723L273.342 -9.99296L273.357 -9.31411L273.365 -8.63584L273.367 -7.95829L273.364 -7.2816L273.354 -6.6059L273.338 -5.93134L273.317 -5.25805L273.29 -4.58617L273.257 -3.91581L273.218 -3.24713L273.174 -2.58026L273.124 -1.91532L273.069 -1.25244L273.008 -0.591754L272.942 0.0666121L272.87 0.722523L272.793 1.37587L272.711 2.02651L272.623 2.67433L272.531 3.3192L272.434 3.96102L272.331 4.59965L272.224 5.23498L272.112 5.86689L271.996 6.49528L271.874 7.12001L271.749 7.74099L271.618 8.35811L271.484 8.97124L271.345 9.58029L271.202 10.1852L271.054 10.7857L270.903 11.3819L270.748 11.9736L270.589 12.5607L270.427 13.1431L270.26 13.7207L270.09 14.2934L269.917 14.8612L269.741 15.4239L269.561 15.9814L269.378 16.5338L269.192 17.0808L269.003 17.6224L268.811 18.1585L268.617 18.6891L268.42 19.2141L268.22 19.7333L268.018 20.2468L267.814 20.7544L267.608 21.2561L267.399 21.7518L267.189 22.2415L266.977 22.7251L266.763 23.2025L266.547 23.6737L266.33 24.1387L266.112 24.5973L265.892 25.0495L265.672 25.4954L265.45 25.9347L265.227 26.3676L265.004 26.7939L264.78 27.2136L264.555 27.6267L264.33 28.0331L264.105 28.4328L263.88 28.8258L263.654 29.2121L263.429 29.5916L263.203 29.9643L262.978 30.3302L262.754 30.6892L262.53 31.0414L262.306 31.3868L262.084 31.7252L261.862 32.0568L261.641 32.3815L261.422 32.6993L261.204 33.0103L260.987 33.3143L260.771 33.6114L260.557 33.9017L260.345 34.1851L260.135 34.4616L259.927 34.7313L259.721 34.9941L259.517 35.2501L259.315 35.4993L259.116 35.7418L258.919 35.9775L258.725 36.2064L258.534 36.4286L258.346 36.6442L258.16 36.8531L257.978 37.0555L257.799 37.2512L257.623 37.4404L257.451 37.6232L257.282 37.7995L257.117 37.9694L256.955 38.1329L256.798 38.2902L256.644 38.4412L256.495 38.5859L256.349 38.7246L256.208 38.8572L256.071 38.9837L255.939 39.1043L255.811 39.219L255.688 39.3278L255.569 39.4309L255.456 39.5283L255.347 39.6201L255.243 39.7063L255.144 39.787L255.051 39.8623L254.962 39.9323L254.879 39.997L254.802 40.0566L254.73 40.1111L254.663 40.1606L254.602 40.2052L254.547 40.245L254.497 40.28L254.454 40.3104L254.416 40.3363L254.384 40.3576L254.359 40.3747L254.339 40.3874L254.326 40.396L254.319 40.4005L254.318 40.401L254.323 40.3977L254.335 40.3906L254.353 40.3799L254.378 40.3655L254.41 40.3478L254.448 40.3267L254.492 40.3023L254.543 40.2748L254.601 40.2443L254.666 40.2109L254.737 40.1747L254.816 40.1358L254.901 40.0944L254.993 40.0504L255.092 40.0042L255.198 39.9557L255.31 39.9051L255.43 39.8525L255.557 39.798L255.691 39.7418L255.831 39.6839L255.979 39.6245L256.134 39.5637L256.296 39.5016L256.465 39.4383L256.64 39.374L256.823 39.3088L257.013 39.2427L257.21 39.176L257.415 39.1087L257.626 39.0409L257.844 38.9729L258.069 38.9046L258.301 38.8362L258.54 38.7679L258.786 38.6997L259.039 38.6318L259.299 38.5643L259.566 38.4973L259.839 38.431L260.12 38.3654L260.407 38.3006L260.701 38.2369L261.001 38.1743L261.309 38.1129L261.623 38.0528L261.943 37.9942L262.27 37.9371L262.604 37.8818L262.944 37.8282L263.29 37.7766L263.643 37.7269L264.002 37.6795L264.367 37.6342L264.738 37.5914L265.116 37.551L265.499 37.5131L265.889 37.478L266.284 37.4456L266.686 37.4162L267.093 37.3897L267.505 37.3664L267.923 37.3462L268.347 37.3293L268.777 37.3159L269.211 37.3059L269.651 37.2996L270.096 37.2969L270.546 37.2981L271.002 37.3031L271.462 37.312L271.927 37.3251L272.397 37.3423L272.871 37.3637L273.35 37.3894L273.834 37.4196L274.321 37.4542L274.813 37.4934L275.31 37.5372L275.81 37.5858L276.314 37.6391L276.822 37.6974L277.334 37.7605L277.85 37.8287L278.369 37.902L278.891 37.9804L279.417 38.064L279.945 38.1529L280.477 38.2471L281.012 38.3467L281.55 38.4518L282.09 38.5624L282.633 38.6785L283.178 38.8002L283.726 38.9276L284.276 39.0607L284.828 39.1995L285.382 39.3441L285.938 39.4946L286.495 39.6509L287.054 39.8131L287.615 39.9813L288.177 40.1554L288.74 40.3356L289.304 40.5217L289.869 40.7139L290.435 40.9122L291.002 41.1166L291.569 41.3271L292.136 41.5438L292.704 41.7665L293.272 41.9955L293.84 42.2306L294.408 42.4719L294.976 42.7193L295.543 42.973L296.11 43.2328L296.676 43.4989L297.241 43.7711L297.805 44.0494L298.369 44.334L298.931 44.6247L299.491 44.9215L300.051 45.2245L300.608 45.5336L301.164 45.8487L301.718 46.17L302.27 46.4973L302.82 46.8306L303.368 47.1699L303.913 47.5151L304.456 47.8663L304.996 48.2234L305.534 48.5863L306.068 48.9551L306.599 49.3296L307.128 49.7098L307.652 50.0958L308.174 50.4873L308.692 50.8845L309.206 51.2871L309.716 51.6953L310.223 52.1089L310.725 52.5278L311.223 52.9521L311.717 53.3816L312.206 53.8162L312.691 54.256L313.171 54.7008L313.647 55.1505L314.117 55.6052L314.583 56.0647L315.043 56.5289L315.498 56.9978L315.948 57.4713L316.393 57.9492L316.831 58.4316L317.264 58.9184L317.692 59.4093L318.113 59.9045L318.528 60.4036L318.938 60.9068L319.341 61.4138L319.737 61.9246L320.128 62.4391L320.512 62.9572L320.889 63.4788L321.259 64.0037L321.623 64.5319L321.98 65.0633L322.33 65.5978L322.673 66.1352L323.009 66.6755L323.338 67.2185L323.659 67.7641L323.973 68.3122L324.279 68.8628L324.579 69.4156L324.87 69.9705L325.154 70.5276L325.43 71.0865L325.698 71.6473L325.959 72.2097L326.211 72.7737L326.456 73.3392L326.692 73.9059L326.92 74.4739L327.141 75.0429L327.353 75.6129L327.556 76.1836L327.752 76.7551L327.939 77.3271L328.118 77.8995L328.288 78.4723L328.45 79.0452L328.603 79.6181L328.747 80.1909L328.884 80.7635L329.011 81.3358L329.13 81.9075L329.24 82.4787L329.341 83.049L329.434 83.6185L329.518 84.1869L329.593 84.7542L329.66 85.3202L329.717 85.8847L329.766 86.4477L329.806 87.009L329.837 87.5685L329.86 88.126L329.873 88.6814L329.878 89.2345L329.874 89.7853L329.861 90.3336L329.839 90.8793L329.809 91.4221L329.769 91.9621L329.721 92.4991L329.664 93.0329L329.598 93.5634L329.524 94.0904L329.441 94.614L329.349 95.1338L329.249 95.6498L329.14 96.1619L329.022 96.6699L328.896 97.1737L328.761 97.6732L328.618 98.1683L328.466 98.6588L328.306 99.1446L328.138 99.6255L327.961 100.102L327.776 100.573L327.583 101.038L327.381 101.499L327.172 101.954L326.954 102.404L326.728 102.848L326.495 103.286L326.253 103.718L326.004 104.144L325.747 104.565L325.483 104.979L325.21 105.387L324.93 105.788L324.643 106.183L324.348 106.571L324.046 106.953L323.737 107.328L323.421 107.695L323.097 108.056L322.767 108.41L322.429 108.757L322.085 109.096L321.734 109.428L321.377 109.752L321.013 110.069L320.642 110.379L320.265 110.68L319.882 110.974L319.493 111.26L319.097 111.538L318.696 111.808L318.289 112.07L317.876 112.324L317.457 112.57L317.033 112.807L316.603 113.036L316.168 113.257L315.728 113.469L315.282 113.672L314.832 113.867L314.377 114.054L313.917 114.231L313.452 114.4L312.982 114.561L312.509 114.712L312.031 114.855L311.548 114.988L311.062 115.113L310.572 115.229L310.078 115.335L309.58 115.433L309.078 115.522L308.573 115.601L308.065 115.672L307.553 115.733L307.039 115.785L306.521 115.828L306 115.862L305.477 115.887L304.951 115.902L304.423 115.908L303.892 115.905L303.359 115.893L302.824 115.872L302.287 115.841L301.748 115.801L301.207 115.752L300.665 115.694L300.121 115.627L299.576 115.55L299.03 115.465L298.482 115.37L297.934 115.266L297.385 115.153L296.835 115.031L296.284 114.9L295.733 114.76L295.181 114.611L294.63 114.453L294.078 114.287L293.526 114.111L292.975 113.927L292.423 113.734L291.873 113.532L291.322 113.321L290.772 113.102L290.223 112.875L289.675 112.639L289.128 112.394L288.582 112.141L288.037 111.88L287.494 111.611L286.952 111.333L286.411 111.048L285.872 110.754L285.335 110.453L284.8 110.143L284.267 109.826L283.736 109.501L283.208 109.168L282.681 108.828L282.158 108.481L281.636 108.126L281.118 107.763L280.602 107.394L280.089 107.017L279.579 106.634L279.072 106.243L278.568 105.846L278.067 105.442L277.57 105.032L277.076 104.615L276.586 104.191L276.099 103.761L275.616 103.325L275.137 102.884L274.661 102.436L274.19 101.982L273.723 101.522L273.26 101.057L272.801 100.587L272.346 100.111L271.896 99.6297L271.45 99.1434L271.008 98.6521L270.571 98.1559L270.139 97.655L269.711 97.1494L269.289 96.6394L268.871 96.1249L268.457 95.6063L268.049 95.0835L267.646 94.5568L267.248 94.0262L266.855 93.4919L266.467 92.9541L266.084 92.4128L265.707 91.8682L265.335 91.3204L264.968 90.7696L264.607 90.216L264.251 89.6596L263.9 89.1005L263.555 88.539L263.215 87.9752L262.881 87.4092L262.553 86.8411L262.23 86.2711L261.913 85.6994L261.601 85.126L261.295 84.5512L260.995 83.975L260.7 83.3976L260.412 82.8192L260.128 82.2399L259.851 81.6598L259.579 81.0791L259.313 80.4979L259.053 79.9164L258.799 79.3347L258.55 78.7529L258.307 78.1713L258.07 77.5898L257.838 77.0088L257.612 76.4282L257.392 75.8484L257.178 75.2693L256.969 74.6911L256.766 74.1141L256.568 73.5383L256.376 72.9638L256.19 72.3908L256.009 71.8195L255.834 71.2499L255.664 70.6822L255.5 70.1166L255.341 69.5532L255.188 68.992L255.04 68.4333L254.897 67.8772L254.76 67.3238L254.627 66.7732L254.5 66.2256L254.378 65.6811L254.261 65.1398L254.15 64.6018L254.043 64.0673L253.941 63.5364L253.844 63.0091L253.751 62.4858L253.664 61.9663L253.581 61.451L253.503 60.9398L253.429 60.4329L253.36 59.9304L253.295 59.4325L253.235 58.9392L253.179 58.4506L253.127 57.9669L253.079 57.4881L253.035 57.0144L252.995 56.5458L252.959 56.0825L252.927 55.6245L252.899 55.172L252.874 54.7251L252.853 54.2838L252.835 53.8482L252.821 53.4185L252.81 52.9946L252.802 52.5768L252.797 52.165L252.796 51.7594L252.797 51.36L252.801 50.967L252.808 50.5803L252.817 50.2001L252.829 49.8265L252.844 49.4595L252.86 49.0991L252.879 48.7455L252.9 48.3986L252.923 48.0587L252.949 47.7256L252.975 47.3996L253.004 47.0805L253.034 46.7686L253.066 46.4637L253.099 46.1661L253.134 45.8757L253.169 45.5926L253.206 45.3167L253.244 45.0482L253.282 44.7871L253.322 44.5334L253.362 44.2872L253.402 44.0484L253.443 43.8172L253.484 43.5934L253.526 43.3772L253.567 43.1686L253.609 42.9675L253.65 42.7741L253.691 42.5883L253.732 42.4101L253.772 42.2395L253.812 42.0765L253.851 41.9212L253.889 41.7735L253.926 41.6335L253.963 41.5011L253.998 41.3763L254.032 41.2591L254.064 41.1495L254.095 41.0475L254.125 40.9531L254.153 40.8662L254.179 40.7869L254.203 40.7151L254.225 40.6507L254.245 40.5939L254.263 40.5444L254.278 40.5023L254.291 40.4676L254.302 40.4402L254.31 40.4201L254.315 40.4073L254.317 40.4016L254.317 40.4031L254.313 40.4117L254.306 40.4273L254.296 40.4499L254.283 40.4795L254.266 40.516L254.246 40.5593L254.222 40.6094L254.194 40.6661L254.163 40.7296L254.127 40.7996L254.088 40.876L254.044 40.959L253.997 41.0483L253.945 41.1438L253.889 41.2456L253.829 41.3535L253.764 41.4675L253.694 41.5874L253.62 41.7133L253.541 41.8449L253.457 41.9822L253.368 42.1251L253.275 42.2736L253.176 42.4275L253.073 42.5868L252.964 42.7513L252.85 42.921L252.731 43.0957L252.606 43.2753L252.476 43.4598L252.34 43.6491L252.199 43.843L252.053 44.0414L251.901 44.2442L251.743 44.4514L251.579 44.6628L251.41 44.8782L251.235 45.0977L251.054 45.321L250.867 45.5481L250.674 45.7788L250.475 46.0131L250.27 46.2507L250.059 46.4916L249.842 46.7357L249.619 46.9829L249.39 47.2329L249.155 47.4858L248.913 47.7414L248.665 47.9994L248.411 48.26L248.151 48.5228L247.884 48.7878L247.612 49.0549L247.333 49.3239L247.047 49.5946L246.755 49.8671L246.457 50.1411L246.153 50.4165L245.843 50.6931L245.526 50.971L245.203 51.2498L244.873 51.5296L244.537 51.8101L244.195 52.0912L243.847 52.3729L243.492 52.6549L243.132 52.9371L242.765 53.2195L242.391 53.5018L242.012 53.784L241.626 54.0659L241.235 54.3474L240.837 54.6284L240.433 54.9086L240.024 55.1881L239.608 55.4667L239.186 55.7442L238.759 56.0205L238.325 56.2955L237.886 56.569L237.441 56.841L236.99 57.1113L236.534 57.3798L236.072 57.6463L235.604 57.9108L235.131 58.1731L234.653 58.433L234.169 58.6906L233.68 58.9456L233.185 59.1979L232.686 59.4474L232.181 59.694L231.671 59.9375L231.156 60.1779L230.637 60.4151L230.112 60.6489L229.583 60.8792L229.049 61.1059L228.511 61.3289L227.968 61.5481L227.42 61.7634L226.869 61.9746L226.313 62.1817L225.753 62.3845L225.188 62.583L224.62 62.7771L224.048 62.9666L223.473 63.1515L222.893 63.3317L222.31 63.507L221.724 63.6774L221.134 63.8428L220.541 64.0031L219.945 64.1582L219.346 64.308L218.744 64.4525L218.139 64.5915L217.531 64.725L216.921 64.8529L216.308 64.9751L215.693 65.0915L215.075 65.2021L214.456 65.3068L213.834 65.4056L213.21 65.4982L212.585 65.5848L211.958 65.6652L211.33 65.7394L210.7 65.8073L210.069 65.8689L209.436 65.924L208.803 65.9727L208.169 66.0149L207.533 66.0505L206.898 66.0795L206.261 66.1019L205.625 66.1175L204.988 66.1264L204.351 66.1286L203.714 66.124L203.077 66.1125L202.44 66.0941L201.804 66.0688L201.168 66.0366L200.533 65.9974L199.898 65.9513L199.265 65.8982L198.632 65.838L198.001 65.7708L197.371 65.6965L196.743 65.6152L196.116 65.5269L195.491 65.4314L194.868 65.3289L194.247 65.2193L193.628 65.1026L193.011 64.9788L192.396 64.848L191.784 64.7101L191.175 64.5651L190.569 64.4131L189.965 64.254L189.365 64.088L188.768 63.9149L188.174 63.7348L187.583 63.5478L186.996 63.3539L186.413 63.1531L185.834 62.9454L185.259 62.7308L184.688 62.5095L184.121 62.2813L183.558 62.0465L183 61.8049L182.447 61.5567L181.898 61.3019L181.354 61.0406L180.815 60.7727L180.282 60.4984L179.753 60.2177L179.23 59.9306L178.712 59.6373L178.2 59.3377L177.694 59.0319L177.193 58.7201L176.699 58.4022L176.21 58.0783L175.728 57.7486L175.252 57.413L174.782 57.0716L174.319 56.7246L173.862 56.372L173.412 56.0139L172.969 55.6503L172.533 55.2813L172.104 54.9071L171.682 54.5277L171.267 54.1432L170.859 53.7536L170.459 53.3592L170.067 52.9599L169.681 52.5559L169.304 52.1473L168.934 51.7341L168.572 51.3165L168.219 50.8945L167.873 50.4683L167.535 50.0379L167.205 49.6036L166.884 49.1653L166.571 48.7232L166.266 48.2773L165.97 47.8279L165.682 47.375L165.403 46.9187L165.133 46.4592L164.871 45.9965L164.618 45.5308L164.374 45.0621L164.139 44.5907L163.913 44.1166L163.696 43.6399L163.488 43.1608L163.289 42.6793L163.099 42.1957L162.918 41.71L162.747 41.2223L162.585 40.7328L162.432 40.2417L162.289 39.7489L162.155 39.2547L162.03 38.7591L161.915 38.2624L161.809 37.7646L161.713 37.2658L161.626 36.7663L161.549 36.266L161.482 35.7652L161.424 35.264L161.375 34.7624L161.336 34.2607L161.307 33.759L161.288 33.2573L161.278 32.7559L161.277 32.2548L161.287 31.7542L161.306 31.2542L161.334 30.755L161.372 30.2566L161.42 29.7592L161.477 29.263L161.544 28.768L161.62 28.2744L161.706 27.7822L161.802 27.2918L161.906 26.8031L162.021 26.3163L162.145 25.8315L162.278 25.3489L162.42 24.8685L162.572 24.3905L162.733 23.9151L162.904 23.4423L163.083 22.9722L163.272 22.5051L163.47 22.0409L163.677 21.5799L163.893 21.1221L164.118 20.6677L164.352 20.2168L164.594 19.7694L164.846 19.3258L165.106 18.886L165.375 18.4501L165.653 18.0183L165.939 17.5907L166.234 17.1673L166.537 16.7483L166.848 16.3338L167.168 15.9239L167.495 15.5187L167.831 15.1182L168.175 14.7227L168.527 14.3322L168.887 13.9467L169.254 13.5665L169.63 13.1915L170.012 12.8219L170.403 12.4578L170.8 12.0993L171.205 11.7464L171.618 11.3993L172.037 11.058L172.464 10.7225L172.897 10.3931L173.337 10.0698L173.784 9.75257L174.238 9.4416L174.698 9.13692L175.165 8.83862L175.637 8.54676L176.116 8.26141L176.602 7.98263L177.093 7.7105L177.59 7.44508L178.092 7.18642L178.601 6.93459L179.115 6.68963L179.634 6.45161L180.158 6.22058L180.688 5.99659L181.223 5.77968L181.762 5.56991L182.307 5.36731L182.856 5.17193L183.409 4.9838L183.967 4.80297L184.53 4.62947L185.096 4.46333L185.667 4.30458L186.241 4.15325L186.819 4.00937L187.401 3.87296L187.987 3.74404L188.575 3.62263L189.167 3.50875L189.762 3.40241L190.361 3.30362L190.962 3.2124L191.565 3.12875L192.172 3.05268L192.78 2.98419L193.392 2.92328L194.005 2.86995L194.62 2.82419L195.238 2.786L195.857 2.75537L196.478 2.7323L197.1 2.71675L197.724 2.70873L198.349 2.70822L198.975 2.71518L199.602 2.72961L200.23 2.75146L200.859 2.78073L201.488 2.81738L202.118 2.86138L202.749 2.91269L203.379 2.97127L204.009 3.0371L204.64 3.11012L205.27 3.1903L205.9 3.27759L206.53 3.37195L207.159 3.47332L207.787 3.58165L208.415 3.6969L209.041 3.81899L209.667 3.94788L210.291 4.08351L210.914 4.22581L211.536 4.37472L212.156 4.53018L212.775 4.69211L213.391 4.86044L214.006 5.0351L214.619 5.21603L215.229 5.40314L215.838 5.59635L216.444 5.79559L217.047 6.00077L217.648 6.2118L218.247 6.42862L218.842 6.65112L219.435 6.87921L220.024 7.11282L220.611 7.35183L221.194 7.59617L221.774 7.84574L222.35 8.10042L222.923 8.36015L223.493 8.62479L224.058 8.89427L224.62 9.16846L225.178 9.44727L225.732 9.73059L226.282 10.0183L226.828 10.3103L227.369 10.6065L227.907 10.9068L228.439 11.211L228.968 11.5191L229.491 11.8309L230.011 12.1463L230.525 12.4652L231.035 12.7875L231.539 13.113L232.039 13.4416L232.534 13.7733L233.024 14.1079L233.508 14.4452L233.988 14.7851L234.462 15.1276L234.931 15.4724L235.394 15.8195L235.852 16.1688L236.305 16.52L236.752 16.8731L237.194 17.2279L237.63 17.5844L238.06 17.9423L238.485 18.3016L238.904 18.6621L239.317 19.0237L239.724 19.3862L240.126 19.7496L240.521 20.1136L240.911 20.4782L241.295 20.8432L241.673 21.2085L242.045 21.5739L242.411 21.9393L242.771 22.3046L243.125 22.6697L243.473 23.0344L243.815 23.3985L244.151 23.762L244.48 24.1247L244.804 24.4865L245.122 24.8472L245.433 25.2067L245.739 25.5649L246.039 25.9217L246.332 26.2768L246.619 26.6302L246.901 26.9818L247.176 27.3314L247.446 27.6789L247.709 28.0241L247.966 28.367L248.218 28.7073L248.463 29.0451L248.703 29.3801L248.937 29.7122L249.165 30.0413L249.387 30.3673L249.603 30.69L249.814 31.0093L250.019 31.3252L250.218 31.6374L250.412 31.9459L250.6 32.2506L250.782 32.5513L250.959 32.8479L251.13 33.1403L251.297 33.4284L251.457 33.7121L251.613 33.9912L251.763 34.2657L251.908 34.5355L252.048 34.8003L252.183 35.0603L252.313 35.3151L252.438 35.5648L252.558 35.8093L252.673 36.0483L252.784 36.2819L252.89 36.51L252.991 36.7324L253.088 36.949L253.18 37.1598L253.268 37.3647L253.352 37.5636L253.432 37.7564L253.507 37.943L253.578 38.1233L253.646 38.2973L253.709 38.4649L253.769 38.626L253.825 38.7806L253.878 38.9285L253.927 39.0697L253.972 39.2041L254.015 39.3317L254.054 39.4523L254.089 39.5661L254.122 39.6728L254.152 39.7724L254.179 39.8649L254.203 39.9502L254.225 40.0282L254.244 40.099L254.261 40.1624L254.275 40.2185L254.287 40.2672L254.297 40.3083L254.304 40.342L254.31 40.3682L254.314 40.3868L254.317 40.3979L254.317 40.4013L254.317 40.3971L254.314 40.3852L254.311 40.3656L254.306 40.3383L254.3 40.3033L254.294 40.2605L254.286 40.21L254.278 40.1518L254.268 40.0858L254.259 40.012L254.249 39.9305L254.239 39.8412L254.228 39.7441L254.218 39.6393L254.207 39.5267L254.197 39.4064L254.186 39.2783L254.177 39.1426L254.167 38.9991L254.158 38.848L254.15 38.6892L254.143 38.5228L254.136 38.3488L254.131 38.1672L254.126 37.978L254.123 37.7814L254.121 37.5773L254.121 37.3658L254.122 37.1468L254.125 36.9206L254.129 36.687L254.135 36.4462L254.144 36.1981L254.154 35.9429L254.167 35.6806L254.181 35.4113L254.198 35.135L254.218 34.8517L254.24 34.5616L254.265 34.2647L254.292 33.9611L254.323 33.6508L254.356 33.3339L254.392 33.0105L254.432 32.6807L254.474 32.3445L254.52 32.0021L254.569 31.6534L254.622 31.2986L254.679 30.9378L254.739 30.5711L254.802 30.1985L254.87 29.8202L254.941 29.4361L255.017 29.0465L255.096 28.6515L255.18 28.251L255.268 27.8453L255.36 27.4344L255.456 27.0184L255.557 26.5975L255.662 26.1717L255.772 25.7411L255.887 25.3059L256.006 24.8662L256.13 24.422L256.259 23.9736L256.392 23.5209L256.531 23.0642L256.675 22.6035L256.823 22.139L256.977 21.6708L257.136 21.199L257.3 20.7237L257.469 20.245L257.644 19.7632L257.823 19.2782L258.009 18.7903L258.199 18.2996L258.395 17.8061L258.597 17.3101L258.804 16.8116L259.017 16.3108L259.235 15.8078L259.458 15.3028L259.688 14.7959L259.923 14.2872L260.163 13.7768L260.41 13.2649L260.662 12.7517L260.919 12.2373L261.183 11.7217L261.452 11.2052L261.727 10.6879L262.008 10.1699L262.294 9.65137L262.586 9.13245L262.884 8.61328L263.188 8.09398L263.497 7.57471L263.812 7.05562L264.133 6.53682L264.46 6.01848L264.792 5.50072L265.13 4.98369L265.474 4.46754L265.823 3.95239L266.178 3.4384L266.539 2.9257L266.905 2.41443L267.276 1.90473L267.654 1.39674L268.036 0.890609L268.425 0.386457L268.818 -0.115562L269.217 -0.615322L269.622 -1.11268L270.031 -1.6075L270.446 -2.09964L270.866 -2.58898L271.292 -3.07537L271.722 -3.55868L272.157 -4.03879L272.598 -4.51555L273.043 -4.98883L273.494 -5.45852L273.949 -5.92447L274.409 -6.38655L274.874 -6.84465L275.343 -7.29862L275.817 -7.74836L276.295 -8.19373L276.778 -8.6346L277.265 -9.07086L277.757 -9.5024L278.252 -9.92908L278.752 -10.3508L279.256 -10.7674L279.764 -11.1788L280.276 -11.5849L280.791 -11.9856L281.31 -12.3807L281.833 -12.7702L282.36 -13.1539L282.89 -13.5317L283.423 -13.9036L283.959 -14.2694L284.499 -14.629L285.042 -14.9824L285.587 -15.3293L286.136 -15.6698L286.687 -16.0038L287.241 -16.331L287.797 -16.6516L288.356 -16.9652L288.918 -17.272L289.481 -17.5717L290.047 -17.8643L290.615 -18.1498L291.184 -18.428L291.756 -18.6988L292.329 -18.9622L292.903 -19.2182L293.479 -19.4665L294.057 -19.7073L294.635 -19.9403L295.215 -20.1656L295.796 -20.3831L296.377 -20.5927L296.96 -20.7943L297.542 -20.9879L298.126 -21.1734L298.71 -21.3509L299.294 -21.5202L299.878 -21.6812L300.462 -21.8341L301.046 -21.9786L301.629 -22.1147L302.213 -22.2425L302.796 -22.3619L303.378 -22.4728L303.959 -22.5753L304.54 -22.6692L305.119 -22.7546L305.698 -22.8314L306.275 -22.8997L306.85 -22.9593L307.425 -23.0103L307.997 -23.0526L308.568 -23.0863L309.137 -23.1114L309.703 -23.1277L310.268 -23.1354L310.83 -23.1344L311.39 -23.1247L311.947 -23.1063L312.502 -23.0793L313.053 -23.0436L313.602 -22.9992L314.148 -22.9461L314.691 -22.8844L315.23 -22.8141L315.766 -22.7351L316.298 -22.6476L316.826 -22.5515L317.351 -22.4469L317.871 -22.3337L318.388 -22.2121L318.901 -22.0819L319.409 -21.9434L319.912 -21.7965L320.411 -21.6412L320.906 -21.4776L321.396 -21.3058L321.88 -21.1257L322.36 -20.9375L322.835 -20.7411L323.304 -20.5367L323.768 -20.3242L324.226 -20.1038L324.679 -19.8755L325.126 -19.6393L325.567 -19.3953L326.003 -19.1437L326.432 -18.8843L326.855 -18.6174L327.272 -18.343L327.683 -18.0611L328.087 -17.7718L328.485 -17.4753L328.876 -17.1716L329.26 -16.8607L329.638 -16.5427L330.008 -16.2178L330.372 -15.886L330.728 -15.5474L331.077 -15.2021L331.419 -14.8502L331.754 -14.4918L332.081 -14.1269L332.401 -13.7557L332.712 -13.3782L333.017 -12.9946L333.313 -12.605L333.602 -12.2094L333.882 -11.8081L334.155 -11.4009L334.42 -10.9882L334.676 -10.5699L334.925 -10.1462L335.165 -9.71721L335.229 -9.5987Z" stroke="#9DB7FF" stroke-width="1.5"/>
</svg>
