<svg width="32" height="32" viewBox="0 0 21 22" fill="none" xmlns="http://www.w3.org/2000/svg">
<path d="M0 7.66414C0 6.67583 0.433984 5.73736 1.18702 5.09728L6.2403 0.801993C7.49833 -0.267329 9.34594 -0.267332 10.604 0.801991L15.6572 5.09728C16.4103 5.73736 16.8443 6.67583 16.8443 7.66414V16.2128C16.8443 18.0734 15.336 19.5817 13.4754 19.5817H3.36885C1.50829 19.5817 0 18.0734 0 16.2128V7.66414Z" fill="#B072FF"/>
<path d="M3.26074 10.0825C3.26074 9.09416 3.69473 8.1557 4.44776 7.51561L9.50104 3.22033C10.7591 2.15101 12.6067 2.151 13.8647 3.22033L18.918 7.51561C19.671 8.1557 20.105 9.09416 20.105 10.0825V18.6311C20.105 20.4917 18.5967 22 16.7362 22H6.6296C4.76903 22 3.26074 20.4917 3.26074 18.6311V10.0825Z" fill="#1D2C3C"/>
</svg>