<svg width="18" height="22" viewBox="0 0 18 22" fill="none" xmlns="http://www.w3.org/2000/svg">
<path d="M9.78114 3.41989L8.19298 3.41665C4.57031 3.40798 1.42539 6.3514 1.40048 9.91665V14.0225C1.40048 14.8783 1.29214 15.7136 0.825225 16.4253L0.514308 16.8998C0.0408915 17.6191 0.550058 18.5833 1.40048 18.5833H16.5996C17.4501 18.5833 17.9581 17.6191 17.4858 16.8998L17.1749 16.4253C16.7091 15.7136 16.5996 14.8772 16.5996 14.0214V9.91773C16.5563 6.3514 13.4038 3.42856 9.78114 3.41989V3.41989Z" fill="#BEBEC2"/>
<path d="M12.25 18.5833C12.25 19.4453 11.9076 20.2719 11.2981 20.8814C10.6886 21.4909 9.86195 21.8333 9 21.8333C8.13805 21.8333 7.3114 21.4909 6.7019 20.8814C6.09241 20.2719 5.75 19.4453 5.75 18.5833" fill="#6F6E73"/>
<path d="M9.00016 0.166687C9.5748 0.166687 10.1259 0.39496 10.5322 0.801289C10.9386 1.20762 11.1668 1.75872 11.1668 2.33335V3.41669H6.8335V2.33335C6.8335 1.75872 7.06177 1.20762 7.4681 0.801289C7.87443 0.39496 8.42553 0.166687 9.00016 0.166687Z" fill="#6F6E73"/>
</svg>