<svg width="22" height="22" viewBox="0 0 22 22" fill="none" xmlns="http://www.w3.org/2000/svg">
<path d="M13.1665 1.54144C13.1665 0.78202 12.5512 0.166687 11.7918 0.166687H10.209C9.4485 0.166687 8.83317 0.78202 8.83317 1.54144C8.83317 2.1676 8.40417 2.70494 7.82025 2.9346C7.72817 2.97144 7.63609 3.01044 7.54617 3.04944C6.97092 3.2986 6.28734 3.22277 5.84317 2.77969C5.58538 2.52208 5.23586 2.37738 4.87142 2.37738C4.50698 2.37738 4.15746 2.52208 3.89967 2.77969L2.7795 3.89985C2.5219 4.15764 2.37719 4.50717 2.37719 4.8716C2.37719 5.23604 2.5219 5.58557 2.7795 5.84335C3.22367 6.28752 3.2995 6.97002 3.04817 7.54635C3.00868 7.63705 2.97076 7.72843 2.93442 7.82044C2.70475 8.40435 2.16742 8.83335 1.54125 8.83335C0.781837 8.83335 0.166504 9.44869 0.166504 10.2081V11.7919C0.166504 12.5514 0.781837 13.1667 1.54125 13.1667C2.16742 13.1667 2.70475 13.5957 2.93442 14.1796C2.97125 14.2717 3.01025 14.3638 3.04817 14.4537C3.29842 15.0289 3.22259 15.7125 2.7795 16.1567C2.5219 16.4145 2.37719 16.764 2.37719 17.1284C2.37719 17.4929 2.5219 17.8424 2.7795 18.1002L3.89967 19.2204C4.15746 19.478 4.50698 19.6227 4.87142 19.6227C5.23586 19.6227 5.58538 19.478 5.84317 19.2204C6.28734 18.7762 6.96984 18.7004 7.54617 18.9506C7.63609 18.9907 7.72817 19.0286 7.82025 19.0654C8.40417 19.2951 8.83317 19.8324 8.83317 20.4586C8.83317 21.218 9.4485 21.8334 10.2079 21.8334H11.7918C12.5512 21.8334 13.1665 21.218 13.1665 20.4586C13.1665 19.8324 13.5955 19.2951 14.1794 19.0644C14.2715 19.0286 14.3636 18.9907 14.4535 18.9517C15.0288 18.7004 15.7123 18.7773 16.1554 19.2204C16.2831 19.3481 16.4347 19.4494 16.6015 19.5185C16.7683 19.5876 16.9471 19.6232 17.1277 19.6232C17.3083 19.6232 17.4871 19.5876 17.6539 19.5185C17.8208 19.4494 17.9723 19.3481 18.1 19.2204L19.2202 18.1002C19.4778 17.8424 19.6225 17.4929 19.6225 17.1284C19.6225 16.764 19.4778 16.4145 19.2202 16.1567C18.776 15.7125 18.7002 15.03 18.9504 14.4537C18.9905 14.3638 19.0284 14.2717 19.0653 14.1796C19.2949 13.5957 19.8323 13.1667 20.4584 13.1667C21.2178 13.1667 21.8332 12.5514 21.8332 11.7919V10.2092C21.8332 9.44977 21.2178 8.83444 20.4584 8.83444C19.8323 8.83444 19.2949 8.40544 19.0642 7.82152C19.0279 7.7295 18.99 7.63812 18.9504 7.54744C18.7013 6.97219 18.7771 6.2886 19.2202 5.84444C19.4778 5.58665 19.6225 5.23712 19.6225 4.87269C19.6225 4.50825 19.4778 4.15872 19.2202 3.90094L18.1 2.78077C17.8422 2.52317 17.4927 2.37846 17.1283 2.37846C16.7638 2.37846 16.4143 2.52317 16.1565 2.78077C15.7123 3.22494 15.0298 3.30077 14.4535 3.05052C14.3628 3.01066 14.2714 2.97238 14.1794 2.93569C13.5955 2.70494 13.1665 2.1676 13.1665 1.54252V1.54144Z" fill="#B6BABD"/>
<path d="M15.3332 11C15.3332 12.1493 14.8766 13.2515 14.064 14.0642C13.2513 14.8768 12.1491 15.3334 10.9998 15.3334C9.85057 15.3334 8.74837 14.8768 7.93571 14.0642C7.12305 13.2515 6.6665 12.1493 6.6665 11C6.6665 9.85075 7.12305 8.74855 7.93571 7.93589C8.74837 7.12323 9.85057 6.66669 10.9998 6.66669C12.1491 6.66669 13.2513 7.12323 14.064 7.93589C14.8766 8.74855 15.3332 9.85075 15.3332 11Z" fill="#5E6872"/>
</svg>
