<svg width="70" height="69" viewBox="0 0 70 69" fill="none" xmlns="http://www.w3.org/2000/svg">
<path d="M-12.3018 -12.7773H80.109V83.056H-12.3018V-12.7773Z" fill="#2F80ED"/>
<path d="M24.0124 48C21.3569 48 18.8102 46.9828 16.9326 45.1721C15.0549 43.3614 14 40.9055 14 38.3448C14 35.7841 15.0549 33.3283 16.9326 31.5176C18.8102 29.7069 21.3569 28.6897 24.0124 28.6897C24.6395 25.8729 26.4742 23.3975 29.1129 21.8081C30.4194 21.0211 31.884 20.4754 33.4229 20.2019C34.9619 19.9285 36.5452 19.9328 38.0824 20.2146C39.6195 20.4963 41.0805 21.05 42.3818 21.8441C43.6831 22.6381 44.7993 23.657 45.6666 24.8425C46.534 26.0279 47.1355 27.3568 47.4369 28.7532C47.7382 30.1495 47.7335 31.5861 47.4229 32.9808H49.5512C51.5267 32.9808 53.4214 33.772 54.8183 35.1803C56.2152 36.5887 57 38.4988 57 40.4904C57 42.4821 56.2152 44.3922 54.8183 45.8005C53.4214 47.2088 51.5267 48 49.5512 48H24.0124Z" fill="white"/>
</svg>
